<svg id="Layer_1" data-name="Layer 1" xmlns="http://www.w3.org/2000/svg" viewBox="0 0 263.597 228.947"><defs><style>.cls-1{fill:#f5f5f5;}.cls-2{fill:#fff;}.cls-3{fill:#1c2e34;}.cls-4{fill:#455a64;}.cls-5{fill:#f4f4f4;}.cls-6{fill:#ffb0a0;}.cls-7{fill:#0b181b;}.cls-8{fill:#e0e0e0;}.cls-9{fill:#c7c7c9;}.cls-10{fill:#f9a498;}.cls-11{fill:#e8505b;}.cls-12,.cls-14,.cls-16,.cls-20,.cls-21{fill:none;}.cls-12{stroke:#e98980;stroke-width:0.5px;}.cls-12,.cls-20,.cls-21{stroke-miterlimit:10;}.cls-13{fill:#263238;}.cls-14{stroke:#0b181b;stroke-width:0.527px;}.cls-14,.cls-16{stroke-linecap:round;stroke-linejoin:round;}.cls-15{fill:#ffba99;}.cls-16{stroke:#312220;stroke-width:0.558px;}.cls-17{fill:#cb9da8;}.cls-18{fill:#666a6b;}.cls-19{fill:#e2e6e8;}.cls-20{stroke:#263238;}.cls-20,.cls-21{stroke-width:1.161px;}.cls-21{stroke:#9fa5a8;}</style></defs><title>details-2</title><path class="cls-1" d="M186.608,20.121c28.545,17.752,60.24,49.27,67.623,83.046,17.243,78.886-84.66,126.882-148.573,125.76C65.044,228.214,23.07,206.5,7.177,169.121c-10.341-24.324-8.766-52.554,0-77.49C35.093,12.2,111.668-26.483,186.608,20.121Z" transform="translate(0 0.001)"/><rect class="cls-2" x="14.201" y="29.55" width="33.086" height="41.984"/><rect class="cls-2" x="14.201" y="75.385" width="33.086" height="43.018"/><rect class="cls-2" x="50.854" y="29.55" width="33.086" height="41.984"/><rect class="cls-2" x="50.854" y="75.385" width="33.086" height="43.018"/><rect class="cls-2" x="90.846" y="159.281" width="3.758" height="13.278"/><path class="cls-3" d="M102.56,157.813H83.185a3.606,3.606,0,0,1-3.606-3.606h0a3.606,3.606,0,0,1,3.606-3.606H102.56a3.606,3.606,0,0,1,3.606,3.606h0a3.606,3.606,0,0,1-3.606,3.606h0Z" transform="translate(0 0.001)"/><rect class="cls-3" x="89.401" y="156.128" width="6.875" height="4.716"/><rect class="cls-3" x="89.401" y="170.404" width="6.875" height="20.646"/><rect class="cls-3" x="73.029" y="188.506" width="38.823" height="2.873"/><rect class="cls-3" x="73.029" y="188.506" width="2.277" height="8.93"/><circle class="cls-3" cx="73.982" cy="197.436" r="3.568"/><rect class="cls-3" x="109.575" y="188.506" width="2.277" height="8.93"/><circle class="cls-3" cx="110.528" cy="197.436" r="3.568"/><path class="cls-4" d="M116.877,154.7a26.684,26.684,0,0,1-26.653-26.653V95.4a3.366,3.366,0,0,1,6.732,0v32.653a19.944,19.944,0,0,0,19.921,19.922A3.366,3.366,0,0,1,116.877,154.7Z" transform="translate(0 0.001)"/><polygon class="cls-5" points="93.589 92.032 57.651 92.032 59.837 118.401 58.788 138.234 76.713 149.646 80.939 154.705 116.877 154.705 107.109 148.513 99.824 140.256 96.91 138.475 94.481 122.448 94.319 103.183 93.589 92.032"/><path class="cls-4" d="M80.939,154.7a26.684,26.684,0,0,1-26.653-26.653V95.4a3.366,3.366,0,0,1,6.732,0v32.653a19.944,19.944,0,0,0,19.921,19.922A3.366,3.366,0,0,1,80.939,154.7Z" transform="translate(0 0.001)"/><polygon class="cls-6" points="138.77 193.076 138.486 173.781 128.692 173.261 128.962 193.986 138.408 194.046 138.77 193.076"/><path class="cls-7" d="M127.594,189.93s8.1,3.331,11.9-1.92l16.676,10.13-31.087-.2Z" transform="translate(0 0.001)"/><rect class="cls-2" x="139.183" y="183.927" width="2.863" height="31.087" transform="translate(-59.756 338.798) rotate(-89.631)"/><path class="cls-2" d="M139.293,192.441a0.546,0.546,0,0,0,.227-0.173,11.344,11.344,0,0,1,2.563-2.5,0.507,0.507,0,0,0,.17-0.7l-0.019-.028a0.572,0.572,0,0,0-.76-0.145,12.171,12.171,0,0,0-2.844,2.754,0.507,0.507,0,0,0,.094.711l0.028,0.02A0.574,0.574,0,0,0,139.293,192.441Z" transform="translate(0 0.001)"/><path class="cls-2" d="M141.969,193.78a0.547,0.547,0,0,0,.227-0.173,11.339,11.339,0,0,1,2.563-2.5,0.507,0.507,0,0,0,.17-0.7l-0.019-.028a0.57,0.57,0,0,0-.76-0.146,12.171,12.171,0,0,0-2.844,2.754,0.507,0.507,0,0,0,.095.711l0.027,0.019A0.574,0.574,0,0,0,141.969,193.78Z" transform="translate(0 0.001)"/><path class="cls-2" d="M144.644,195.117a0.546,0.546,0,0,0,.227-0.173,11.351,11.351,0,0,1,2.563-2.5,0.507,0.507,0,0,0,.17-0.7l-0.019-.028a0.57,0.57,0,0,0-.76-0.145,12.178,12.178,0,0,0-2.844,2.754,0.507,0.507,0,0,0,.095.711l0.027,0.019A0.574,0.574,0,0,0,144.644,195.117Z" transform="translate(0 0.001)"/><path class="cls-8" d="M103.015,128.939l4.592,3.846c-1.34,8.212-5.767,15.669,2.554,15.669h14.754v33.924L141.47,182.6l0.924-41.561a11.83,11.83,0,0,0-11.607-12.049l-0.193,0Z" transform="translate(0 0.001)"/><rect class="cls-9" x="123.866" y="176.181" width="19.045" height="6.42"/><polygon class="cls-6" points="112.25 193.076 111.966 173.781 102.172 173.261 102.442 193.986 111.887 194.046 112.25 193.076"/><path class="cls-7" d="M101.073,189.93s8.1,3.331,11.9-1.92l16.677,10.13-31.087-.2Z" transform="translate(0 0.001)"/><rect class="cls-2" x="112.664" y="183.927" width="2.863" height="31.087" transform="translate(-86.106 312.28) rotate(-89.631)"/><path class="cls-2" d="M112.773,192.441a0.546,0.546,0,0,0,.227-0.173,11.344,11.344,0,0,1,2.563-2.5,0.507,0.507,0,0,0,.17-0.7l-0.019-.028a0.572,0.572,0,0,0-.76-0.145,12.167,12.167,0,0,0-2.844,2.754,0.507,0.507,0,0,0,.094.711l0.028,0.02A0.574,0.574,0,0,0,112.773,192.441Z" transform="translate(0 0.001)"/><path class="cls-2" d="M115.449,193.78a0.547,0.547,0,0,0,.227-0.173,11.341,11.341,0,0,1,2.563-2.5,0.507,0.507,0,0,0,.17-0.7l-0.019-.028a0.57,0.57,0,0,0-.76-0.146,12.171,12.171,0,0,0-2.844,2.754,0.507,0.507,0,0,0,.095.711l0.027,0.019A0.574,0.574,0,0,0,115.449,193.78Z" transform="translate(0 0.001)"/><path class="cls-2" d="M118.124,195.117a0.546,0.546,0,0,0,.227-0.173,11.351,11.351,0,0,1,2.563-2.5,0.507,0.507,0,0,0,.17-0.7l-0.019-.028a0.57,0.57,0,0,0-.76-0.145,12.173,12.173,0,0,0-2.844,2.754,0.507,0.507,0,0,0,.095.711l0.027,0.019A0.574,0.574,0,0,0,118.124,195.117Z" transform="translate(0 0.001)"/><path class="cls-8" d="M82.179,128.939l-0.627,3.846a13.5,13.5,0,0,0,13.32,15.669H98.86v33.924l16.555,0.221,0.924-41.561a11.829,11.829,0,0,0-11.6-12.049l-0.2,0Z" transform="translate(0 0.001)"/><rect class="cls-9" x="97.811" y="176.181" width="19.045" height="6.42"/><polygon class="cls-10" points="123.358 114.343 145.664 119.039 146.866 123.514 117.658 123.928 115.318 111.798 123.358 114.343"/><path class="cls-10" d="M142.277,118.776s4.561-2.768,9.081-1.613c2.98,0.762,5.933,3.627,5.7,6.694h0l-18.145-.232Z" transform="translate(0 0.001)"/><path class="cls-10" d="M124.634,98.218l2.575,19.1s-11.149,5.867-10.915,5.162-2.5-24.258-2.5-24.258h10.841v0Z" transform="translate(0 0.001)"/><path class="cls-11" d="M114.675,82.419s8.183,1.288,10.05,8.272c2.432,9.1,3.359,10.412,3.359,10.412l-12.374,1.8Z" transform="translate(0 0.001)"/><path class="cls-11" d="M98.946,80.1l15.729,2.319a3.275,3.275,0,0,1,2.8,3.208l0.374,37.313-35.091.1L80.377,90.49l1.3-4.413a5.587,5.587,0,0,1,4.475-3.933Z" transform="translate(0 0.001)"/><polygon class="cls-6" points="88.646 100.976 82.075 117.963 71.94 109.141 75.873 96.919 88.646 100.976"/><path class="cls-11" d="M95.042,81.418s-12.214-.109-15.25,3.5c-3.824,4.543-8.361,16.154-8.361,16.154l19.863,4.376Z" transform="translate(0 0.001)"/><path class="cls-6" d="M83.209,115.126l22.921,5.105-0.944,5.076-27.085.181s-12.113-2.444-6.162-16.348Z" transform="translate(0 0.001)"/><path class="cls-6" d="M106.131,120.231s5.386-2.108,9.847-1.275a6.12,6.12,0,0,1,4.833,6.528h0l-18-.165Z" transform="translate(0 0.001)"/><line class="cls-12" x1="83.209" y1="115.127" x2="77.55" y2="114.343"/><path class="cls-7" d="M109.449,52.32s6.236,5.86.094,7.985Z" transform="translate(0 0.001)"/><path class="cls-13" d="M105.732,62.759a4.267,4.267,0,0,0,4.056,4.44,4.221,4.221,0,0,0,4.289-4.152V63.023a4.266,4.266,0,0,0-4.056-4.44,4.221,4.221,0,0,0-4.289,4.152v0.024Z" transform="translate(0 0.001)"/><path class="cls-6" d="M104.6,71.949l0.327,8.31c0.121,2.918-1.557,4.543-4.34,4.625h0c-2.376.069-5.03-.98-5.027-3.556l0.1-13.1Z" transform="translate(0 0.001)"/><path class="cls-7" d="M104.835,77.474s-6.747.837-9.149-6.7c-0.756-2.375,8.9.324,8.9,0.324Z" transform="translate(0 0.001)"/><path class="cls-6" d="M102.2,74.467h0c4.746-.176,8.51-4.193,8.49-8.2L110.6,57.884a9.2,9.2,0,0,0-8.764-9.283h0c-4.978-.157-10,3.854-10.137,8.993l0.145,6.531A10.448,10.448,0,0,0,102.2,74.467Z" transform="translate(0 0.001)"/><polyline class="cls-14" points="105.702 63.998 105.928 65.611 104.756 65.703"/><path class="cls-7" d="M100.433,59.1s1.937-.243,1.989.573c0,0,.021.553-1.671,0.731s-2.138.067-2.313-.446S99.522,59.142,100.433,59.1Z" transform="translate(0 0.001)"/><path class="cls-7" d="M108.276,58.829s-1.611-.106-1.712.666c0,0-.055.523,1.354,0.584s1.859-.142,1.975-0.567C110.024,59.03,109.039,58.81,108.276,58.829Z" transform="translate(0 0.001)"/><ellipse class="cls-7" cx="108.084" cy="62.273" rx="0.817" ry="0.843" transform="translate(-0.397 0.696) rotate(-0.368)"/><ellipse class="cls-7" cx="100.925" cy="62.315" rx="0.817" ry="0.843" transform="translate(-0.395 0.645) rotate(-0.365)"/><line class="cls-14" x1="103.878" y1="68.535" x2="106.052" y2="68.229"/><path class="cls-7" d="M115.591,49.5l-3.6-.51c1.052-.669,2.106-1.334,2.106-1.334a19.273,19.273,0,0,0-5.728-.842,16.993,16.993,0,0,0-7.72-1.973c-4.181-.051-7.751,2.215-9.041,4.711h0a3.83,3.83,0,0,0-3.946,3.711v0c-0.617,5.091,5.51,13.5,5.51,13.5l0.687-6.651c3.8-.272,3.975-3.622,3.677-5.807a45.912,45.912,0,0,0,12.212-.493,5.326,5.326,0,0,0,1.76-.487C113.678,52.576,115.3,51.382,115.591,49.5Z" transform="translate(0 0.001)"/><path class="cls-15" d="M87.481,64.132a3.413,3.413,0,0,0,3.244,3.551,3.376,3.376,0,0,0,3.431-3.32v-0.02a3.413,3.413,0,0,0-3.244-3.551,3.376,3.376,0,0,0-3.431,3.32v0.02Z" transform="translate(0 0.001)"/><path class="cls-16" d="M91.936,65.1S92,62.6,89.679,62.922" transform="translate(0 0.001)"/><path class="cls-13" d="M103.773,44.716l0.1,0.481s-6.03.634-8.779,4.3c-3.064,4.086-3.112,9.6-3.112,9.6l-1.3.11,0.087-8.737,2.613-2.724,4.165-2.491,2.915-.932Z" transform="translate(0 0.001)"/><path class="cls-13" d="M95.616,62.272c0.623,2.871-1.23,5.71-4.871,6.5-2.575.559-3.831-1.606-4.454-4.477A4.8,4.8,0,1,1,95.616,62.272Z" transform="translate(0 0.001)"/><ellipse class="cls-13" cx="89.617" cy="63.574" rx="4.771" ry="5.319" transform="translate(-11.438 20.44) rotate(-12.237)"/><path class="cls-13" d="M88.81,58.985a20.341,20.341,0,0,1,.262-6.681,10.918,10.918,0,0,1,8.94-8.375q0.509-.093,1.073-0.169a6.76,6.76,0,0,1,3.86.442,4.624,4.624,0,0,1,.829.513s-5.857.243-8.676,3.375a16.168,16.168,0,0,0-3.814,11.43Z" transform="translate(0 0.001)"/><path class="cls-6" d="M92.338,81.158L98.946,80.1l8.789,1.3s0.54,5.128-6.891,5.344S92.338,81.158,92.338,81.158Z" transform="translate(0 0.001)"/><polygon class="cls-17" points="132.278 106.602 135.399 108.843 157.534 90.159 211.436 60.402 208.525 58.29 171.549 69.65 132.278 106.602"/><path class="cls-18" d="M139.923,60.012l-8.775,43.6a3.014,3.014,0,0,0,2.955,3.608H197.27a3.014,3.014,0,0,0,2.947-2.383l9.332-43.6a3.014,3.014,0,0,0-2.947-3.645H142.878A3.014,3.014,0,0,0,139.923,60.012Z" transform="translate(0 0.001)"/><path class="cls-13" d="M142.772,62.068L134,105.666a3.014,3.014,0,0,0,2.955,3.608h63.167a3.014,3.014,0,0,0,2.947-2.383l9.332-43.6a3.014,3.014,0,0,0-2.947-3.645H145.726A3.014,3.014,0,0,0,142.772,62.068Z" transform="translate(0 0.001)"/><polygon class="cls-18" points="165.767 97.747 164.588 109.275 169.715 109.275 165.767 97.747"/><polygon class="cls-13" points="165.767 97.509 170.998 123.324 190.067 123.324 181.123 97.509 165.767 97.509"/><circle class="cls-2" cx="175.781" cy="77.654" r="4.232"/><path class="cls-13" d="M201.347,120.92H156.4a1.247,1.247,0,0,0-1.247,1.247h0a1.247,1.247,0,0,0,1.247,1.247h44.951a1.247,1.247,0,0,0,1.247-1.247h0a1.247,1.247,0,0,0-1.247-1.247h0Z" transform="translate(0 0.001)"/><path class="cls-19" d="M145.308,120.92H121.5a1.247,1.247,0,0,0-1.247,1.247h0a1.247,1.247,0,0,0,1.247,1.247h23.807a1.247,1.247,0,0,0,1.247-1.247h0A1.247,1.247,0,0,0,145.308,120.92Z" transform="translate(0 0.001)"/><line class="cls-20" x1="115.886" y1="127.388" x2="115.886" y2="201.004"/><line class="cls-20" x1="69.227" y1="127.388" x2="69.227" y2="201.004"/><line class="cls-20" x1="229.119" y1="127.388" x2="229.119" y2="201.004"/><line class="cls-20" x1="182.46" y1="127.388" x2="182.46" y2="201.004"/><rect class="cls-19" x="58.378" y="123.324" width="44.142" height="5.92"/><rect class="cls-2" x="102.436" y="123.324" width="138.681" height="5.92"/><line class="cls-21" x1="263.597" y1="201.004" x2="18.103" y2="201.004"/></svg>