<svg id="Layer_1" data-name="Layer 1" xmlns="http://www.w3.org/2000/svg" viewBox="0 0 275.135 228.947"><defs><style>.cls-1{fill:#f5f5f5;}.cls-2{fill:#fff;}.cls-12,.cls-14,.cls-18,.cls-19,.cls-20,.cls-21,.cls-3,.cls-5,.cls-6,.cls-7,.cls-8{fill:none;}.cls-3{stroke:#fdeeea;stroke-width:1.96px;}.cls-12,.cls-14,.cls-20,.cls-21,.cls-3,.cls-8{stroke-miterlimit:10;}.cls-4{fill:#e0e0e0;}.cls-21,.cls-5{stroke:#9fa5a8;}.cls-18,.cls-19,.cls-5,.cls-6,.cls-7{stroke-linecap:round;stroke-linejoin:round;}.cls-5{stroke-width:0.98px;}.cls-6,.cls-8{stroke:#fff;}.cls-6{stroke-width:1.22px;}.cls-7{stroke:#455a64;stroke-width:5.463px;}.cls-8{stroke-width:1.879px;}.cls-9{fill:#ffbd9a;}.cls-10{fill:#e8505b;}.cls-11{fill:#c7c7c9;}.cls-12{stroke:#939393;stroke-width:0.844px;}.cls-13{fill:#ffc9bd;}.cls-14{stroke:#ce3e50;stroke-width:0.735px;}.cls-15{fill:#263238;}.cls-16{fill:#ffb1a7;}.cls-17{fill:#1b172c;}.cls-18,.cls-19{stroke:#1b172c;}.cls-18{stroke-width:0.562px;}.cls-19{stroke-width:0.705px;}.cls-20{stroke:#263238;}.cls-20,.cls-21{stroke-width:1.147px;}</style></defs><title>details-3</title><path class="cls-1" d="M69.559,20.121C41.014,37.873,9.318,69.392,1.936,103.168-15.307,182.054,86.6,230.05,150.508,228.927c40.614-.713,82.588-22.424,98.481-59.806,10.341-24.324,8.766-52.554,0-77.49C221.073,12.2,144.5-26.483,69.559,20.121Z" transform="translate(4.467)"/><rect class="cls-2" x="13.161" y="21.977" width="121.423" height="86.421" rx="2.363" ry="2.363"/><line class="cls-3" x1="8.671" y1="50.859" x2="138.153" y2="50.859"/><line class="cls-3" x1="8.671" y1="77.892" x2="138.153" y2="77.892"/><circle class="cls-4" cx="33.379" cy="38.334" r="7.347"/><circle class="cls-4" cx="33.379" cy="64.307" r="7.347"/><circle class="cls-4" cx="33.379" cy="91.259" r="7.347"/><line class="cls-5" x1="45.169" y1="35.155" x2="110.847" y2="35.155"/><line class="cls-5" x1="45.169" y1="40.294" x2="54.912" y2="40.294"/><line class="cls-5" x1="45.169" y1="61.4" x2="110.847" y2="61.4"/><line class="cls-5" x1="45.169" y1="66.539" x2="79.978" y2="66.539"/><line class="cls-5" x1="45.169" y1="88.624" x2="59.521" y2="88.624"/><line class="cls-5" x1="45.169" y1="93.764" x2="110.847" y2="93.764"/><polyline class="cls-6" points="30.432 39.108 32.515 40.528 36.325 36.14"/><polyline class="cls-6" points="30.432 65.018 32.515 66.438 36.325 62.05"/><polyline class="cls-6" points="30.432 92.033 32.515 93.453 36.325 89.065"/><circle class="cls-5" cx="225.106" cy="36.295" r="15.09"/><polyline class="cls-5" points="225.106 29.843 225.106 36.295 235.295 36.295"/><path class="cls-4" d="M248.414,78.053h17.922a4.332,4.332,0,0,0,4.332-4.332h0a4.332,4.332,0,0,0-4.332-4.332H248.414a4.332,4.332,0,0,0-4.332,4.332h0A4.332,4.332,0,0,0,248.414,78.053Z" transform="translate(4.467)"/><circle class="cls-2" cx="262.334" cy="73.736" r="1.156" transform="translate(192.249 335.839) rotate(-89.822)"/><circle class="cls-2" cx="257.375" cy="73.721" r="1.156" transform="translate(187.321 330.865) rotate(-89.822)"/><circle class="cls-2" cx="252.416" cy="73.705" r="1.156" transform="translate(182.392 325.891) rotate(-89.822)"/><path class="cls-7" d="M170.63,151.617h22.594c12.7,0,21.58-8.189,23.689-20.71l5.6-33.283" transform="translate(4.467)"/><path class="cls-8" d="M170.887,200.609l10.138-46.987a11.77,11.77,0,0,1,11.494-9.237h0a11.77,11.77,0,0,1,11.539,9.452l9.2,46.772" transform="translate(4.467)"/><polygon class="cls-9" points="129.989 193.865 135.226 177.231 143.557 176.789 138.332 194.639 130.297 194.69 129.989 193.865"/><path class="cls-10" d="M135.029,191.19s-6.889,2.833-10.125-1.633l-14.183,8.617,26.443-.17Z" transform="translate(4.467)"/><rect class="cls-2" x="110.729" y="198.088" width="26.444" height="2.435" transform="matrix(1, -0.006, 0.006, 1, 3.186, 0.802)"/><path class="cls-2" d="M125.077,193.326a0.466,0.466,0,0,1-.193-0.147,9.648,9.648,0,0,0-2.18-2.125,0.431,0.431,0,0,1-.129-0.617,0.486,0.486,0,0,1,.647-0.124,10.352,10.352,0,0,1,2.419,2.343,0.431,0.431,0,0,1-.1.621A0.488,0.488,0,0,1,125.077,193.326Z" transform="translate(4.467)"/><path class="cls-2" d="M122.8,194.465a0.465,0.465,0,0,1-.193-0.147,9.647,9.647,0,0,0-2.18-2.125,0.432,0.432,0,0,1-.129-0.617,0.485,0.485,0,0,1,.647-0.124,10.352,10.352,0,0,1,2.419,2.343,0.431,0.431,0,0,1-.1.621A0.488,0.488,0,0,1,122.8,194.465Z" transform="translate(4.467)"/><path class="cls-2" d="M120.525,195.6a0.465,0.465,0,0,1-.193-0.147,9.657,9.657,0,0,0-2.18-2.125,0.431,0.431,0,0,1-.129-0.616,0.485,0.485,0,0,1,.647-0.124,10.36,10.36,0,0,1,2.419,2.342,0.431,0.431,0,0,1-.1.621A0.488,0.488,0,0,1,120.525,195.6Z" transform="translate(4.467)"/><path class="cls-4" d="M154.869,129.046l-7.241.46a12.016,12.016,0,0,0-10.812,8.762l-11.347,43.706,15.723-1.463,12.676-38.392Z" transform="translate(4.467)"/><polygon class="cls-11" points="146.885 184.011 127.896 184.011 129.212 177.01 148.201 177.01 146.885 184.011"/><polygon class="cls-9" points="160.358 193.865 160.6 177.452 168.931 177.01 168.701 194.639 160.666 194.69 160.358 193.865"/><path class="cls-10" d="M165.4,191.19s-6.889,2.833-10.125-1.633l-14.183,8.617,26.443-.17Z" transform="translate(4.467)"/><rect class="cls-2" x="141.098" y="198.088" width="26.444" height="2.435" transform="translate(3.187 0.998) rotate(-0.369)"/><path class="cls-2" d="M155.446,193.326a0.466,0.466,0,0,1-.193-0.147,9.648,9.648,0,0,0-2.18-2.125,0.431,0.431,0,0,1-.129-0.617,0.487,0.487,0,0,1,.647-0.124,10.355,10.355,0,0,1,2.419,2.343,0.431,0.431,0,0,1-.1.621A0.488,0.488,0,0,1,155.446,193.326Z" transform="translate(4.467)"/><path class="cls-2" d="M153.17,194.465a0.465,0.465,0,0,1-.193-0.147,9.647,9.647,0,0,0-2.18-2.125,0.431,0.431,0,0,1-.129-0.617,0.485,0.485,0,0,1,.646-0.124,10.351,10.351,0,0,1,2.419,2.343,0.431,0.431,0,0,1-.1.621A0.488,0.488,0,0,1,153.17,194.465Z" transform="translate(4.467)"/><path class="cls-2" d="M150.894,195.6a0.465,0.465,0,0,1-.193-0.147,9.656,9.656,0,0,0-2.18-2.125,0.431,0.431,0,0,1-.129-0.616,0.485,0.485,0,0,1,.647-0.124,10.363,10.363,0,0,1,2.419,2.342,0.431,0.431,0,0,1-.1.621A0.488,0.488,0,0,1,150.894,195.6Z" transform="translate(4.467)"/><path class="cls-4" d="M199.407,128.269l-22.652.9-16.916.346c-4.937,0-8.96,2.977-9.033,7.914-0.226,15.178.948,46.722,1.662,46.579,0.964-.193,14.829,0,14.829,0l1.41-34.465,10.864,1.182c2.677,0.022,10.5.528,12.891-.683C197.4,147.54,203.714,141.675,199.407,128.269Z" transform="translate(4.467)"/><rect class="cls-11" x="154.397" y="177.01" width="18.989" height="7.001"/><line class="cls-12" x1="173.173" y1="149.546" x2="172.91" y2="141.827"/><path class="cls-13" d="M133.686,101.347l-9.1-4.551s-7.428-.548-11.941.434a0.857,0.857,0,0,0-.66,1.037h0a0.852,0.852,0,0,0,.921.647l4.167-.456-2.244,1.526a0.954,0.954,0,0,0,.123,1.649h0a0.941,0.941,0,0,0,.866-0.02c1.247-.689,5.165-2.486,8.985-0.337l-3.563,1.6a1.13,1.13,0,0,0-.373,1.791h0a1.13,1.13,0,0,0,.982.361l3.316-.43a10.219,10.219,0,0,0,7.513-.145Z" transform="translate(4.467)"/><path class="cls-10" d="M163.4,89.581c-2.884,7.062-7.008,21.127-7.008,21.127l-22.783-10.73L130.6,107.8,149.925,121l21.143-.882,1.567-16.536Z" transform="translate(4.467)"/><path class="cls-10" d="M167.2,84.976a11.645,11.645,0,0,0-3.8,4.6l-1.369,39.465s24.221,5.1,37.376-.777c0,0-.371-33.052-7.864-41.8,0,0-2.361-4.646-14.37-4.667A16.475,16.475,0,0,0,167.2,84.976Z" transform="translate(4.467)"/><line class="cls-14" x1="169.542" y1="96.643" x2="171.289" y2="124.352"/><path class="cls-13" d="M141.653,119.535l-0.333-6.8s-2.439-5.093-4.663-5.165a7.224,7.224,0,0,0-4.782,2.214,1.074,1.074,0,0,0,.283,1.7,9.89,9.89,0,0,1,3.5,2.683s-1.076,5.488.74,7.747c0.924,1.149,6.361,2.439,6.361,2.439Z" transform="translate(4.467)"/><path class="cls-10" d="M178.646,88.347l-4.366,27.666-32.823,1.422v11.61l35.3-.854a3.81,3.81,0,0,0,3.1-1.111l0.358,0.169s9.56,0.161,12.246-32.479Z" transform="translate(4.467)"/><polyline class="cls-14" points="148.983 117.303 178.756 115.958 182.297 93.521"/><line class="cls-14" x1="178.756" y1="115.958" x2="183.299" y2="117.303"/><path class="cls-14" d="M191.8,103.51l-3.311,14.773a17.6,17.6,0,0,1-5.747,9.535l-1.484,1.173" transform="translate(4.467)"/><path class="cls-15" d="M161.285,56.52s0.819,3.9,0,6.282-3.424,3.5-2.254,9.707-0.078,6.358-.359,8.112c0,0,24.937,2.348,37.426-4.056,0,0-2.112-3.624-4.451-7.645s-3.218-10.633-3.218-10.633l-9.563-3.66Z" transform="translate(4.467)"/><path class="cls-15" d="M167.206,51.912c-0.285-.089.824-1.732,1.108-1.823,4.439-1.418,13.922-3.294,18.744,4.5,3.544,5.73-.014,16.506-7.462,19.768-7.095,3.107-5.887-20.413-5.887-20.413Z" transform="translate(4.467)"/><circle class="cls-16" cx="165.525" cy="66.926" r="3.52" transform="translate(-2.337 20.233) rotate(-6.854)"/><path class="cls-13" d="M170.23,75.911l0.87,7.622c0.3,2.677,2.11,3.924,4.743,3.607h0c2.247-.27,4.219-1.684,4.23-3.947l-1.947-11.929Z" transform="translate(4.467)"/><path class="cls-17" d="M170.768,80.622c5.347-.463,8.1-8.112,8.1-8.112l-8.74,2.622Z" transform="translate(4.467)"/><path class="cls-13" d="M172.619,77.029h0c-4.517.24-8.426-3.13-8.746-6.812l-0.7-8.692a8.587,8.587,0,0,1,7.529-9.269h0c4.708-.566,9.809,2.693,10.375,7.4l0.489,7A9.384,9.384,0,0,1,172.619,77.029Z" transform="translate(4.467)"/><path class="cls-15" d="M177.384,58.54c-2.145,3.2,1.357,7.747,1.357,7.747l6.616-8S178.654,56.644,177.384,58.54Z" transform="translate(4.467)"/><circle class="cls-13" cx="182.236" cy="65.866" r="3.52" transform="translate(-2.092 22.222) rotate(-6.855)"/><path class="cls-18" d="M181.14,67.052s-0.3-2.534,2.166-2.426" transform="translate(4.467)"/><polyline class="cls-18" points="172.629 68.901 172.561 69.937 173.585 69.938"/><path class="cls-15" d="M173.251,62.565s-1.958-.077-1.951.553c0,0,.02.426,1.728,0.467s2.146-.069,2.285-0.473S174.167,62.546,173.251,62.565Z" transform="translate(4.467)"/><path class="cls-15" d="M165.437,62.821s1.607-.173,1.764.415c0,0,.094.4-1.313,0.525s-1.873,0-2.02-.324C163.7,63.075,164.671,62.85,165.437,62.821Z" transform="translate(4.467)"/><path class="cls-19" d="M171.434,66.672s0.873-1.246,2.49-.041" transform="translate(4.467)"/><path class="cls-19" d="M164.74,66.926a1.092,1.092,0,0,1,1.86-.081" transform="translate(4.467)"/><path class="cls-19" d="M169.785,71.781a2.516,2.516,0,0,0,2.42-1.028" transform="translate(4.467)"/><path class="cls-15" d="M168.314,50.089s-9.645,3.482-7.646,7.111c1.481,2.689,11.187,4.357,20.407,2.458,0,0,4.208-3.417-1-6.959C180.073,52.7,177.277,48.748,168.314,50.089Z" transform="translate(4.467)"/><path class="cls-13" d="M168.443,84.138a18.25,18.25,0,0,1,6.8-2.335,35.708,35.708,0,0,1,8.888.661s-0.266,4.3-8.41,5.25a12.316,12.316,0,0,1-4.783-.292C169.383,86.981,169.015,85.9,168.443,84.138Z" transform="translate(4.467)"/><path class="cls-15" d="M141.2,127.128H113.559v-3.118H141.2a1.559,1.559,0,0,1,1.559,1.559h0A1.559,1.559,0,0,1,141.2,127.128Z" transform="translate(4.467)"/><path class="cls-15" d="M117.2,127.128H77.519a4.7,4.7,0,0,1-4.526-3.438L65.167,95.573a1.619,1.619,0,0,1,1.559-2.053h40.148a1.93,1.93,0,0,1,1.867,1.439Z" transform="translate(4.467)"/><circle class="cls-2" cx="93.585" cy="110.971" r="3.465"/><line class="cls-20" x1="111.409" y1="130.829" x2="111.409" y2="200.609"/><rect class="cls-2" x="50.993" y="127.128" width="117.894" height="7.402"/><line class="cls-21" x1="265.101" y1="200.609" y2="200.609"/></svg>