<svg id="Layer_1" data-name="Layer 1" xmlns="http://www.w3.org/2000/svg" viewBox="0 0 261.235 228.947"><defs><style>.cls-1{fill:#f5f5f5;}.cls-2{fill:#e8505b;}.cls-3{fill:#ffc1b2;}.cls-4{fill:#372c5f;}.cls-5{fill:#263238;}.cls-6{fill:#e7e7e7;}.cls-7{fill:#fff;}.cls-8{fill:#e0e0e0;}.cls-10,.cls-13,.cls-14,.cls-15,.cls-16,.cls-18,.cls-20,.cls-22,.cls-24,.cls-9{fill:none;}.cls-9{stroke:#c6c6c6;stroke-width:0.997px;}.cls-10,.cls-20,.cls-24,.cls-9{stroke-miterlimit:10;}.cls-10{stroke:#ce3e50;stroke-width:0.76px;}.cls-11{fill:#f1998a;}.cls-12{fill:#0b181b;}.cls-13{stroke:#1b142e;stroke-width:0.533px;}.cls-13,.cls-14,.cls-15,.cls-16,.cls-18,.cls-22{stroke-linecap:round;stroke-linejoin:round;}.cls-14,.cls-15{stroke:#1b172c;}.cls-14{stroke-width:0.652px;}.cls-15{stroke-width:0.623px;}.cls-16,.cls-18{stroke:#fff;}.cls-16{stroke-width:1.146px;}.cls-17{fill:#f9b0a3;}.cls-18{stroke-width:0.958px;}.cls-19{fill:#e88e80;}.cls-20{stroke:#55382c;stroke-width:0.718px;}.cls-21{fill:#0b0b0b;}.cls-22{stroke:#021833;stroke-width:0.461px;}.cls-23{fill:#eaeaea;}.cls-24{stroke:#9fa5a8;stroke-width:1.147px;}</style></defs><title>details-4</title><path class="cls-1" d="M186.608,20.121c28.545,17.752,60.24,49.27,67.623,83.046,17.243,78.886-84.66,126.882-148.573,125.76-40.614-.713-82.588-22.424-98.481-59.806-10.341-24.324-8.766-52.554,0-77.49C35.093,12.2,111.668-26.483,186.608,20.121Z"/><path class="cls-2" d="M201.911,54.389a6.327,6.327,0,0,0-5.6-6.515,8.083,8.083,0,0,0-8.706,6.457c-0.775,3.869-1.312,10.708-1.275,10.395l15.491,0.945Z"/><path class="cls-3" d="M202.126,66.058L189.208,64.9a84.692,84.692,0,0,1,.023,13.387,6.81,6.81,0,0,0,6.777,7.366h0a6.811,6.811,0,0,0,6.818-6.565Z"/><path class="cls-3" d="M167.14,61.8l27.734,12.5a5.673,5.673,0,0,1,2.038,7.953h0a5.674,5.674,0,0,1-8.115,1.609L165.043,66.533Z"/><circle class="cls-3" cx="166.277" cy="62.768" r="5.829" transform="matrix(0.32, -0.947, 0.947, 0.32, 53.58, 200.199)"/><path class="cls-3" d="M164.952,57.421s-0.294-2.281,2.67-1.527,5.616,3.053,4.177,8.74Z"/><path class="cls-4" d="M173.707,48.586l-5.7-3.023a0.61,0.61,0,0,0-.848.335l-6.505,15.155a0.744,0.744,0,0,0,.3.944l5.7,3.023a0.61,0.61,0,0,0,.848-0.335l6.505-15.155A0.744,0.744,0,0,0,173.707,48.586Z"/><path class="cls-5" d="M174.8,49.169l-5.7-3.023a0.61,0.61,0,0,0-.848.335l-6.505,15.155a0.744,0.744,0,0,0,.3.944l5.7,3.023a0.61,0.61,0,0,0,.848-0.335L175.1,50.113A0.744,0.744,0,0,0,174.8,49.169Z"/><polygon class="cls-6" points="174.065 50.613 169.06 47.957 163.758 60.308 168.763 62.964 174.065 50.613"/><polygon class="cls-7" points="169.06 47.957 168.763 62.964 174.065 50.613 169.06 47.957"/><path class="cls-3" d="M170.382,63.361l-1.433-5.015a0.964,0.964,0,0,1,.3-0.995h0a0.964,0.964,0,0,1,1.377.12l0.832,1.146Z"/><path class="cls-3" d="M169.9,59.191s-2.408,3.75-.735,7.066l1.455-2.919Z"/><polygon class="cls-3" points="178.204 190.505 187.251 190.467 189.115 178.236 180.068 178.274 178.204 190.505"/><path class="cls-2" d="M187.178,188.416c-2.129.568-6.948,2.426-9.208-.85l-15.279,8.279,26.973-.177-1.257-6.442A0.985,0.985,0,0,0,187.178,188.416Z"/><rect class="cls-7" x="162.699" y="195.554" width="26.973" height="2.338" transform="translate(353.66 392.284) rotate(179.623)"/><path class="cls-7" d="M178.129,190.982a0.428,0.428,0,0,1-.177-0.141,9,9,0,0,0-1.992-2.039,0.427,0.427,0,0,1,.473-0.711,9.655,9.655,0,0,1,2.21,2.248A0.427,0.427,0,0,1,178.129,190.982Z"/><path class="cls-7" d="M176.052,192.076a0.429,0.429,0,0,1-.177-0.141,9,9,0,0,0-1.992-2.039,0.427,0.427,0,0,1,.472-0.711,9.651,9.651,0,0,1,2.21,2.248A0.427,0.427,0,0,1,176.052,192.076Z"/><path class="cls-7" d="M173.974,193.169a0.427,0.427,0,0,1-.176-0.141,9.008,9.008,0,0,0-1.992-2.039,0.427,0.427,0,0,1,.472-0.711,9.666,9.666,0,0,1,2.21,2.247A0.427,0.427,0,0,1,173.974,193.169Z"/><path class="cls-8" d="M192.8,77.819s-3.651,8.116-9.723,44.341-6.888,60.568-6.888,60.568h18.678L211.149,81.6l-4.162-3.943Z"/><rect class="cls-3" x="208.928" y="178.255" width="9.048" height="12.231" transform="matrix(1, -0.004, 0.004, 1, -0.777, 0.903)"/><path class="cls-2" d="M217.928,188.213c-2.129.568-6.948,2.427-9.208-.85l-15.279,8.279,26.973-.177-1.257-6.442A0.985,0.985,0,0,0,217.928,188.213Z"/><rect class="cls-7" x="193.449" y="195.554" width="26.973" height="2.338" transform="translate(415.159 392.082) rotate(179.623)"/><path class="cls-7" d="M208.879,190.982a0.427,0.427,0,0,1-.177-0.141,9,9,0,0,0-1.992-2.039,0.427,0.427,0,0,1,.472-0.711,9.654,9.654,0,0,1,2.21,2.248A0.427,0.427,0,0,1,208.879,190.982Z"/><path class="cls-7" d="M206.8,192.076a0.428,0.428,0,0,1-.177-0.141,9,9,0,0,0-1.992-2.039,0.427,0.427,0,0,1,.472-0.711,9.651,9.651,0,0,1,2.21,2.248A0.427,0.427,0,0,1,206.8,192.076Z"/><path class="cls-7" d="M204.724,193.169a0.427,0.427,0,0,1-.177-0.141,9.008,9.008,0,0,0-1.992-2.039,0.427,0.427,0,0,1,.472-0.711,9.666,9.666,0,0,1,2.21,2.247A0.427,0.427,0,0,1,204.724,193.169Z"/><path class="cls-8" d="M215.136,77.571s8.933,8.723,9.4,26.252c0.534,20.223-1.138,79.14-1.138,79.14l-17.885-.468L196.285,77.78Z"/><polyline class="cls-9" points="201.816 139.557 198.577 106.959 193.952 101.472"/><path class="cls-2" d="M216.5,46.295l-11.125-.644-7.869.936-4.781,2.018a2,2,0,0,0-1.212,1.935l0.131,2.78h0s-3.63,12.184.706,14.99l0.448,9.509,22.872-.254,3.463-23.006C219.17,53.055,218,46.411,216.5,46.295Z"/><path class="cls-10" d="M190.031,64.9s-0.823-4.664.714-7.7"/><path class="cls-3" d="M226.288,58.934l-11.445,6.222c2.653,5.576,4.807,8.54,5.837,11.912,1.161,3.8,4.1,6.823,7.8,5.362h0a6.811,6.811,0,0,0,3.913-8.618Z"/><path class="cls-2" d="M223.183,50.135a7.4,7.4,0,0,0-8.526-3.553c-3.443.932-3.354,8.938-2.321,12.352a27.754,27.754,0,0,0,2.507,6.222L227.55,58.7Z"/><line class="cls-10" x1="214.843" y1="65.156" x2="212.038" y2="60.304"/><path class="cls-3" d="M212.4,100.93l9.723-27.1a5.673,5.673,0,0,1,7.925-2.143h0a5.673,5.673,0,0,1,1.716,8.093L217.424,104.7Z"/><circle class="cls-3" cx="213.644" cy="103.512" r="5.829" transform="matrix(0.308, -0.952, 0.952, 0.308, 49.436, 274.96)"/><path class="cls-3" d="M208.315,104.908s-2.277.324-1.562-2.65,2.978-5.655,8.683-4.293Z"/><path class="cls-5" d="M195.127,17.983s-7.342-.656-7.368,8.023c-0.019,6.477-1.677,14.029-3.929,17.86,4.416,0.309,19.017-.021,13.874.078-3.786.072,6.638,2.409,16.047-2.187A27.255,27.255,0,0,0,215.5,30.415c-0.4-6.336-3.219-11.089-6.562-13.234S198.073,15.143,195.127,17.983Z"/><path class="cls-5" d="M192.226,17.317s15.094-4.833,19.763,2.634c3.388,5.417.14,15.652-6.892,18.814-6.7,3.011-5.771-19.3-5.771-19.3Z"/><circle class="cls-11" cx="191.999" cy="32.689" r="3.338" transform="translate(-2.613 25.047) rotate(-7.414)"/><path class="cls-3" d="M196.23,40.321l0.9,7.219c0.309,2.536,2.037,3.7,4.531,3.377h0c2.129-.277,3.985-1.636,3.974-3.782l-1.956-11.293Z"/><path class="cls-12" d="M196.8,45.025s6.632-1.995,7.943-7.95l-8.621,2.508Z"/><path class="cls-3" d="M198.505,41.36h0c-4.281.27-8.019-2.89-8.356-6.378L189.4,26.746a8.142,8.142,0,0,1,7.054-8.859h0c4.459-.58,9.326,2.463,9.906,6.922l0.529,6.63A9.262,9.262,0,0,1,198.505,41.36Z"/><circle class="cls-3" cx="208.94" cy="31.089" r="3.338" transform="translate(-2.265 27.219) rotate(-7.413)"/><polyline class="cls-13" points="194.053 33.774 194 34.717 195.12 34.712"/><path class="cls-12" d="M198.978,27.961s-1.858-.077-1.843.7c0,0,.024.527,1.644,0.562s2.035-.105,2.161-0.607S199.846,27.929,198.978,27.961Z"/><path class="cls-12" d="M191.227,28.258s1.521-.228,1.677.5c0,0,.094.492-1.239,0.661s-1.776.012-1.92-.382C189.583,28.588,190.5,28.3,191.227,28.258Z"/><path class="cls-7" d="M193.348,36.427l4.878-.1s-0.04,1.482-2.327,1.616C193.661,38.077,193.348,36.427,193.348,36.427Z"/><path class="cls-14" d="M197.442,31.325s0.807-1.153,2.3-.038"/><path class="cls-15" d="M190.932,31.657a1.08,1.08,0,0,1,1.84-.081"/><path class="cls-5" d="M192.226,17.317s-6.854,2-5.122,9.885l21.835-1.349-2.406-7.546Z"/><path class="cls-5" d="M203.33,25.147a57.328,57.328,0,0,1-.15,20.312A27.207,27.207,0,0,0,210.793,43s-1.085-13.86-2.948-18.307S203.408,23,203.408,23Z"/><path class="cls-3" d="M197.661,46.372l-2.54,1.221s-3.651,6.129,3.544,6.363c8.679,0.282,9.388-4.732,10.773-8.089L205,45.442Z"/><rect class="cls-7" x="21.066" y="24.328" width="45.738" height="32.512" rx="3.242" ry="3.242" transform="translate(87.869 81.169) rotate(180)"/><path class="cls-7" d="M60.643,54.18L57.133,61a1.216,1.216,0,0,1-2.12.077L50.806,54.18h9.837Z"/><rect class="cls-8" x="32.709" y="33.526" width="21.87" height="13.695"/><polyline class="cls-16" points="32.709 33.526 43.325 40.447 54.579 33.526"/><path class="cls-8" d="M128.154,45.745h18.2a1.5,1.5,0,0,1,1.5,1.5v8.468a1.5,1.5,0,0,1-1.5,1.5H126.658a0,0,0,0,1,0,0V47.24A1.5,1.5,0,0,1,128.154,45.745Z"/><polygon class="cls-8" points="126.659 54.832 126.643 59.895 130.966 54.846 126.659 54.832"/><circle class="cls-7" cx="141.779" cy="51.347" r="0.954" transform="translate(89.994 192.966) rotate(-89.823)"/><circle class="cls-7" cx="137.687" cy="51.334" r="0.954" transform="translate(85.928 188.862) rotate(-89.823)"/><circle class="cls-7" cx="133.596" cy="51.321" r="0.954" transform="translate(81.861 184.757) rotate(-89.823)"/><path class="cls-5" d="M85.926,121.405c-0.713.611-10.141,5.706-15.847,13.042l11.393,10.5,18.857-4.521,1.111-19.016H85.926Z"/><polygon class="cls-17" points="82.928 189.866 80.914 179.203 87.79 179.203 88.617 189.866 82.928 189.866"/><path class="cls-2" d="M88.617,188.853H82.928a12.382,12.382,0,0,0-4.99,6.9h16S91.308,190.076,88.617,188.853Z"/><rect class="cls-7" x="77.938" y="195.751" width="15.997" height="1.977"/><path class="cls-18" d="M82.713,191.549s3.369-1.773,5.9,0"/><path class="cls-5" d="M85.077,138.237c2.246,15.744,6.115,45.31,6.115,45.31l-13.32.247-9.2-42.577a8.344,8.344,0,0,1,6.639-10h0A8.338,8.338,0,0,1,85.077,138.237Z"/><path class="cls-5" d="M114.58,121.405c0.713,0.611,10.141,5.706,15.847,13.042l-11.393,10.5-18.857-4.521-1.111-19.016H114.58Z"/><polygon class="cls-17" points="116.797 189.866 118.812 179.203 111.936 179.203 111.109 189.866 116.797 189.866"/><path class="cls-2" d="M111.109,188.853H116.8a12.382,12.382,0,0,1,4.99,6.9h-16S108.418,190.076,111.109,188.853Z"/><rect class="cls-7" x="105.79" y="195.751" width="15.997" height="1.977" transform="translate(227.577 393.478) rotate(180)"/><path class="cls-18" d="M117.012,191.549s-3.369-1.773-5.9,0"/><path class="cls-5" d="M115.429,138.237c-2.246,15.744-7.073,45.31-7.073,45.31l13.32,0.247,10.159-42.577a8.343,8.343,0,0,0-6.639-10h0A8.338,8.338,0,0,0,115.429,138.237Z"/><path class="cls-8" d="M98.535,77.8s-12.046,0-20.913,8.721v24.439s42.436,0.646,42.436,0,0.011-26.054.011-26.054A36.665,36.665,0,0,0,98.535,77.8Z"/><path class="cls-19" d="M80.614,109.6h-12.1a5.752,5.752,0,0,0-5.752,5.752h0a5.752,5.752,0,0,0,5.752,5.752H82.748Z"/><polygon class="cls-19" points="63.473 112.578 71.602 99.375 82.748 100.879 81.094 115.351 63.473 112.578"/><line class="cls-20" x1="77.621" y1="109.598" x2="70.43" y2="109.598"/><path class="cls-8" d="M79.415,84.909s-6.547,5.285-13.449,16.924c0,0,1.489,6.735,14.345,7.766Z"/><path class="cls-19" d="M118.486,109.6h12.1a5.752,5.752,0,0,1,5.752,5.752h0a5.752,5.752,0,0,1-5.752,5.752H116.352Z"/><polygon class="cls-19" points="135.594 112.52 125.423 96.954 116.352 100.879 118.006 115.351 135.594 112.52"/><line class="cls-20" x1="119.173" y1="109.598" x2="128.67" y2="109.598"/><path class="cls-8" d="M120.069,84.909s6.547,5.285,13.449,16.924c0,0-1.489,6.735-14.345,7.766Z"/><rect class="cls-5" x="77.621" y="92.892" width="42.436" height="28.211" rx="1.926" ry="1.926"/><circle class="cls-7" cx="98.839" cy="106.998" r="2.601"/><path class="cls-19" d="M94.169,72.656h9.325a0,0,0,0,1,0,0v6.07a3.256,3.256,0,0,1-3.256,3.256H97.425a3.256,3.256,0,0,1-3.256-3.256V72.656a0,0,0,0,1,0,0Z"/><path class="cls-21" d="M94.195,73.053s1.354,4.179,9.3,4.034V71.318h0s-0.531,1.073-4.07.922C95.85,72.087,94.195,73.053,94.195,73.053Z"/><ellipse class="cls-12" cx="98.755" cy="57.01" rx="11.577" ry="11.875"/><path class="cls-19" d="M108.761,61.343a2.059,2.059,0,0,1,2.553-.674c1.719,0.652.942,4.827-1.637,5.359a2.04,2.04,0,0,1-1.649-.431S108.662,62.513,108.761,61.343Z"/><path class="cls-22" d="M110.973,62.142s-1.44-.481-2.462,1.64"/><path class="cls-19" d="M89.019,61.343a2.059,2.059,0,0,0-2.553-.674c-1.719.652-.941,4.827,1.637,5.359a2.04,2.04,0,0,0,1.649-.431S89.119,62.513,89.019,61.343Z"/><path class="cls-22" d="M86.807,62.142s1.44-.481,2.462,1.64"/><path class="cls-19" d="M108.924,57.745c0,2.676-.276,8.274-2.01,11.6a8.67,8.67,0,0,1-7.853,4.9c-3.531.1-6.162-1.191-8.27-5.239s-2.007-11.205-2.007-11.205,0-9.558,9.961-9.558C109.235,48.236,108.924,57.745,108.924,57.745Z"/><path class="cls-12" d="M89.019,61.343s3.784-8.653.734-10.068C89.753,51.274,87.571,58.722,89.019,61.343Z"/><path class="cls-12" d="M108.731,61.343s-2.127-4.665-.251-8.023C108.48,53.32,110.179,58.722,108.731,61.343Z"/><circle class="cls-12" cx="94.441" cy="63.451" r="0.911"/><circle class="cls-12" cx="102.872" cy="63.451" r="0.911"/><path class="cls-22" d="M98.2,65.434v1.229a0.479,0.479,0,0,0,.569.48l0.653-.137"/><path class="cls-12" d="M97.147,60.629l-5.519.663s0.443-1.464,2.7-1.715S97.147,60.629,97.147,60.629Z"/><path class="cls-12" d="M100.329,60.629l5.519,0.663s-0.443-1.464-2.7-1.715S100.329,60.629,100.329,60.629Z"/><path class="cls-7" d="M95.9,68.552h5.572s0.094,2.074-2.793,1.952S95.9,68.552,95.9,68.552Z"/><path class="cls-12" d="M89.753,51.274s6.222,7.539,19.389,5.034c0,0,1.159-6.813-5.648-8.9S91.377,50.252,89.753,51.274Z"/><path class="cls-12" d="M89.753,51.274s-0.128-6.186,5.6-7.113,5.91,2.137,9.964,2.381c6.052,0.363,8.813,6.315,3.826,9.767l-8.418-5.034H89.753Z"/><path class="cls-12" d="M89.969,49.478s-6.239.767-2.383,10.664Z"/><polygon class="cls-7" points="94.169 76.818 98.755 81.981 95.352 85.464 90.991 78.847 94.169 76.818"/><polygon class="cls-7" points="103.494 77.087 98.755 81.981 102.159 85.464 107.028 78.84 103.494 77.087"/><rect class="cls-7" x="31.901" y="121.103" width="132.622" height="7.345"/><rect class="cls-7" x="52.579" y="128.448" width="4.61" height="69.528"/><rect class="cls-23" x="52.579" y="128.448" width="4.61" height="2.318"/><rect class="cls-7" x="142.749" y="128.448" width="4.61" height="69.528"/><rect class="cls-23" x="142.749" y="128.448" width="4.61" height="2.318"/><line class="cls-24" x1="261.235" y1="198.386" x2="7.913" y2="198.386"/></svg>