<svg id="Layer_3" data-name="Layer 3" xmlns="http://www.w3.org/2000/svg" viewBox="0 0 179.999 44"><defs><style>.cls-1{fill:#e8505b;}.cls-2{fill:#fff;}.cls-3{fill:#30363a;}</style></defs><title>logo</title><path class="cls-1" d="M2.471,10.823L17.648,4.8,32.79,3.874,39.413,7.05s4.706,5.416,4.706,6.169,3.447,15.867,3.447,15.867l0.376,6.944-5.588,2.836L30.5,41.84s-10.589-.752-11.365-1.157S9.094,36.192,9.094,36.192L3.977,28.01Z" transform="translate(0 0)"/><path class="cls-2" d="M0,9.284c0,54.06,49.519,28.841,49.519,28.841C52.072-24.974,0,9.284,0,9.284ZM45.448,35.463s-40,20.416-40-23.147c0,0,42.048-27.7,39.883,23.228Z" transform="translate(0 0)"/><path class="cls-2" d="M13.847,16.517c0,35.994,33.413,19.177,33.413,19.177C48.99-6.387,13.847,16.517,13.847,16.517ZM45.613,34.109S20.354,46.84,20.354,19.526c0,0,26.613-17.36,25.33,14.571H45.66Z" transform="translate(0 0)"/><path class="cls-2" d="M28.154,23.913c0,19.224,17.824,10.219,17.824,10.219C46.919,11.7,28.154,23.913,28.154,23.913Z" transform="translate(0 0)"/><path class="cls-3" d="M83.643,13.239a8.832,8.832,0,0,0-1.32-.968,16.245,16.245,0,0,0-2.33-1.2,20.5,20.5,0,0,0-2.977-.993,13.23,13.23,0,0,0-3.262-.407,7.409,7.409,0,0,0-4.4,1.069A3.518,3.518,0,0,0,67.9,13.748a3.052,3.052,0,0,0,.544,1.859,4.674,4.674,0,0,0,1.579,1.3,13.349,13.349,0,0,0,2.614,1.018q1.579,0.458,3.65.968,2.692,0.714,4.893,1.528a13.325,13.325,0,0,1,3.728,2.037,8.442,8.442,0,0,1,2.355,2.929,9.57,9.57,0,0,1,.829,4.2,10.314,10.314,0,0,1-1.114,4.966,9.241,9.241,0,0,1-3,3.336,13.129,13.129,0,0,1-4.349,1.86,22.21,22.21,0,0,1-5.152.586,28.1,28.1,0,0,1-8.18-1.222A25.413,25.413,0,0,1,59.05,35.65l3.158-6.061a9.947,9.947,0,0,0,1.683,1.2,25.642,25.642,0,0,0,2.874,1.478,22.509,22.509,0,0,0,3.676,1.248,16.857,16.857,0,0,0,4.142.509q5.9,0,5.9-3.718a3.018,3.018,0,0,0-.673-1.986,5.7,5.7,0,0,0-1.91-1.431,18.564,18.564,0,0,0-3-1.12q-1.761-.508-3.935-1.12a33.921,33.921,0,0,1-4.582-1.554,12.059,12.059,0,0,1-3.236-1.986A7.439,7.439,0,0,1,61.2,18.46a9.03,9.03,0,0,1-.648-3.591,11.079,11.079,0,0,1,1.036-4.89A9.906,9.906,0,0,1,64.46,6.414a13.105,13.105,0,0,1,4.271-2.165,17.948,17.948,0,0,1,5.229-.738,20.6,20.6,0,0,1,7.145,1.2,26.821,26.821,0,0,1,5.7,2.827Z" transform="translate(0 0)"/><path class="cls-3" d="M105.39,40.437a15.28,15.28,0,0,1-5.9-1.1,13.532,13.532,0,0,1-4.5-2.98,13.193,13.193,0,0,1-2.874-4.38,13.861,13.861,0,0,1-1.01-5.247,14.651,14.651,0,0,1,.984-5.373,13.073,13.073,0,0,1,2.847-4.431A13.6,13.6,0,0,1,99.462,13.9a15.3,15.3,0,0,1,5.98-1.121A14.927,14.927,0,0,1,111.37,13.9a13.652,13.652,0,0,1,4.453,3,12.756,12.756,0,0,1,2.8,4.38,14.392,14.392,0,0,1,.958,5.2q0,0.662-.026,1.273a5.025,5.025,0,0,1-.129,1.019H98.451a7.848,7.848,0,0,0,.777,2.8,6.924,6.924,0,0,0,1.6,2.088,7.018,7.018,0,0,0,2.227,1.325,7.417,7.417,0,0,0,2.589.458,8.1,8.1,0,0,0,3.909-.994,5.293,5.293,0,0,0,2.51-2.622l5.955,1.629a11.994,11.994,0,0,1-4.789,5.018A15.043,15.043,0,0,1,105.39,40.437Zm7.042-16.094a7.051,7.051,0,0,0-2.252-4.814,7.359,7.359,0,0,0-7.456-1.324,6.855,6.855,0,0,0-2.149,1.35,7,7,0,0,0-1.527,2.088,7.276,7.276,0,0,0-.7,2.7h14.084Z" transform="translate(0 0)"/><path class="cls-3" d="M149.037,39.928H142.1V24.954a7.71,7.71,0,0,0-1.139-4.686,3.766,3.766,0,0,0-3.158-1.477,6.036,6.036,0,0,0-2.123.407,7.866,7.866,0,0,0-2.045,1.146A9.385,9.385,0,0,0,131.9,22.1a6.89,6.89,0,0,0-1.139,2.241V39.928h-6.938V13.239h6.265v4.94a10.208,10.208,0,0,1,4.349-3.973,14.145,14.145,0,0,1,6.421-1.426A8.292,8.292,0,0,1,145,13.7a6.694,6.694,0,0,1,2.486,2.394,9.941,9.941,0,0,1,1.216,3.362,21.733,21.733,0,0,1,.336,3.82V39.928h0Z" transform="translate(0 0)"/><path class="cls-3" d="M162.5,40.437a10.452,10.452,0,0,1-3.676-.636,8.845,8.845,0,0,1-2.951-1.783,8.3,8.3,0,0,1-1.941-2.673,7.976,7.976,0,0,1-.7-3.362,7.3,7.3,0,0,1,.855-3.489,8.029,8.029,0,0,1,2.381-2.725,11.918,11.918,0,0,1,3.65-1.758,16.186,16.186,0,0,1,4.661-.636,20.425,20.425,0,0,1,3.547.306,14.63,14.63,0,0,1,3.081.867v-1.53a5.3,5.3,0,0,0-1.528-4.075,6.422,6.422,0,0,0-4.53-1.426,12.161,12.161,0,0,0-4.246.764,19.82,19.82,0,0,0-4.247,2.241l-2.122-4.33A20.271,20.271,0,0,1,166.02,12.78q5.85,0,9.087,2.827t3.235,8.175v8.3a2.368,2.368,0,0,0,.389,1.528,1.711,1.711,0,0,0,1.268.509v5.807a15.756,15.756,0,0,1-3.055.356,4.682,4.682,0,0,1-3.029-.866,3.705,3.705,0,0,1-1.32-2.292l-0.155-1.477a11.974,11.974,0,0,1-4.4,3.565A12.82,12.82,0,0,1,162.5,40.437Zm1.968-4.991a9.173,9.173,0,0,0,3.339-.611,6.073,6.073,0,0,0,2.46-1.63,2.443,2.443,0,0,0,1.14-1.935V28.214a17.3,17.3,0,0,0-2.693-.739,14.8,14.8,0,0,0-2.8-.28,7.5,7.5,0,0,0-4.4,1.2,3.579,3.579,0,0,0-1.709,3.031,3.617,3.617,0,0,0,1.347,2.877,4.929,4.929,0,0,0,3.315,1.143h0Z" transform="translate(0 0)"/></svg>