<svg id="Background_Complete" data-name="Background Complete" xmlns="http://www.w3.org/2000/svg" viewBox="0 0 624.233 374.892"><defs><style>.cls-1{fill:#ebebeb;}.cls-2{fill:#e0e0e0;}.cls-3{fill:#f5f5f5;}.cls-4{fill:#fafafa;}.cls-5{fill:#263238;}.cls-6{fill:#e8505b;}.cls-7{opacity:0.3;}.cls-8{fill:#455a64;}.cls-9{fill:#fff;}.cls-10{fill:#ffbe9d;}.cls-11{opacity:0.5;}.cls-12{fill:#eb996e;}.cls-13{opacity:0.2;}.cls-14{opacity:0.4;}</style></defs><title>video</title><path class="cls-1" d="M366.134,290.931h39.088a4.981,4.981,0,0,0,4.98-4.981V273.907a8.392,8.392,0,0,0-8.392-8.392H365.839Z"/><path class="cls-1" d="M404.568,298.505H327.706a3.787,3.787,0,0,1-3.787-3.787h0a3.787,3.787,0,0,1,3.787-3.787h76.862a3.787,3.787,0,0,1,3.787,3.787h0A3.787,3.787,0,0,1,404.568,298.505Z"/><path class="cls-2" d="M312.044,190.018l42.284-.748L381.17,290.71l-57.25.574-21.577-88.928A9.983,9.983,0,0,1,312.044,190.018Z"/><polygon class="cls-1" points="333.105 298.505 320.453 372.031 323.919 372.031 340.553 298.505 333.105 298.505"/><polygon class="cls-2" points="362.933 298.505 349.488 372.031 352.954 372.031 370.381 298.505 362.933 298.505"/><polygon class="cls-1" points="395.921 298.505 410.92 372.031 407.454 372.031 388.473 298.505 395.921 298.505"/><path class="cls-1" d="M349.488,189.27l20.926,101.548h16.048L369.681,201.09a14.451,14.451,0,0,0-14.209-11.82h-5.984Z"/><rect class="cls-1" x="414.406" y="223.385" width="57.875" height="2.815"/><polygon class="cls-1" points="481.25 226.199 492.105 185.518 446.916 185.518 437.085 226.199 481.25 226.199"/><polygon class="cls-2" points="439.794 223.12 480.164 223.12 489.56 187.398 448.982 187.398 439.794 223.12"/><rect class="cls-3" x="402.939" y="234.534" width="2.923" height="139.547"/><rect class="cls-1" x="405.862" y="234.934" width="2.923" height="139.147"/><rect class="cls-1" x="583.009" y="234.534" width="2.923" height="139.547"/><rect class="cls-2" x="585.932" y="234.934" width="2.923" height="139.147"/><rect class="cls-2" x="390.321" y="226.426" width="222.014" height="11.445"/><rect class="cls-1" x="486.734" y="237.872" width="97.737" height="18.944"/><circle class="cls-2" cx="537.781" cy="246.036" r="2.178"/><rect class="cls-2" y="26.422" width="65.656" height="99.861"/><rect class="cls-4" x="2.684" y="29.946" width="60.035" height="92.863"/><rect class="cls-2" x="24.568" y="61.231" width="16.52" height="30.294"/><rect class="cls-2" x="548.292" y="88.651" width="1.99" height="17.78"/><rect class="cls-2" x="613.779" y="88.651" width="1.991" height="17.78"/><rect class="cls-1" x="540.954" y="81.503" width="83.279" height="7.148"/><rect class="cls-3" x="596.299" y="27.991" width="11.482" height="53.512"/><circle class="cls-2" cx="602.271" cy="68.664" r="2.274"/><rect class="cls-2" x="600.416" y="42.168" width="3.514" height="21.87"/><rect class="cls-1" x="584.636" y="27.991" width="11.481" height="53.512"/><circle class="cls-4" cx="590.607" cy="68.664" r="2.274"/><rect class="cls-4" x="588.754" y="42.168" width="3.512" height="21.87"/><rect class="cls-2" x="573.53" y="27.991" width="11.481" height="53.512"/><circle class="cls-4" cx="579.501" cy="68.664" r="2.274"/><rect class="cls-4" x="577.647" y="42.168" width="3.513" height="21.87"/><polygon class="cls-2" points="559.332 80.687 573.127 33.613 568.37 31.526 554.222 78.981 559.332 80.687"/><path class="cls-1" d="M234.044,282.432c4.835-2.495,10.528-2.819,15.9-1.932,2.884,0.477,5.89,1.339,7.852,3.505s2.334,5.978.081,7.839a7.523,7.523,0,0,1-4.951,1.256c-4.2-.049-8.864-0.789-12.221,1.739-1.915,1.442-3.19,3.84-5.48,4.55a5.414,5.414,0,0,1-5.956-2.65,9.253,9.253,0,0,1-.674-6.828A10.425,10.425,0,0,1,234.044,282.432Z"/><path class="cls-1" d="M222.966,261.048c2.956,4.223,8.7,2.825,11.367.247s3.79-6.313,4.815-9.875c2.342-8.139,4.7-16.678,2.962-24.966a13.873,13.873,0,0,0-3.188-6.787,7.247,7.247,0,0,0-6.867-2.285c-2.9.765-4.7,3.6-6,6.3a59.513,59.513,0,0,0-5.881,25.54c-0.014,4.114.471,8.428,2.792,11.824"/><path class="cls-1" d="M214.847,267.107c3.21-3.81,3.819-9.366,2.391-14.139s-4.655-8.833-8.374-12.148a45.088,45.088,0,0,0-15-8.848,15.992,15.992,0,0,0-6.744-1.146,7.078,7.078,0,0,0-5.66,3.424c-1.578,3.01-.065,6.661,1.572,9.639a114.266,114.266,0,0,0,9.849,15c2.952,3.806,6.334,7.561,10.833,9.281s9.173,1.518,11.558-1.6"/><path class="cls-2" d="M222.766,324.745a9.2,9.2,0,0,0,.268-1.919l0.51-5.236a75.638,75.638,0,0,1,1.178-7.681,59.276,59.276,0,0,1,2.792-9.065,33.42,33.42,0,0,1,4.629-8.2A17.288,17.288,0,0,1,238,287.779a16.374,16.374,0,0,1,4.928-1.535,9.219,9.219,0,0,0,1.91-.276,8.987,8.987,0,0,0-1.944-.03,14.933,14.933,0,0,0-5.139,1.337,17.254,17.254,0,0,0-6.173,4.908,32.642,32.642,0,0,0-4.8,8.367A55.418,55.418,0,0,0,224,309.764a64.9,64.9,0,0,0-1.021,7.778c-0.166,2.224-.229,4.024-0.259,5.269A9,9,0,0,0,222.766,324.745Z"/><path class="cls-2" d="M223.127,320.716a3.8,3.8,0,0,0,.052-0.891c0-.669,0-1.512-0.007-2.546-0.006-2.209,0-5.407.113-9.355,0.2-7.9.875-16.4,2.189-28.377,1.244-11.267,2.913-24.378,4.674-32.9,0.378-1.939.758-3.684,1.116-5.211,0.341-1.531.633-2.851,0.914-3.92l0.6-2.475a3.8,3.8,0,0,0,.156-0.878,3.753,3.753,0,0,0-.309.835l-0.739,2.439c-0.328,1.058-.664,2.37-1.047,3.9-0.4,1.521-.82,3.262-1.233,5.2a288.931,288.931,0,0,0-4.914,30.531c-1.316,12.007-1.909,22.939-1.961,30.856-0.047,3.958.037,7.162,0.138,9.373l0.155,2.545A3.764,3.764,0,0,0,223.127,320.716Z"/><path class="cls-2" d="M223.18,299.631a16.93,16.93,0,0,0-.019-2.66c-0.1-1.709-.333-4.179-0.814-7.2a95.006,95.006,0,0,0-2.344-10.5,86,86,0,0,0-4.39-12.422,66.173,66.173,0,0,0-12.892-20.074,32.733,32.733,0,0,0-3.033-2.819c-0.465-.393-0.877-0.786-1.3-1.1l-1.177-.811a16.97,16.97,0,0,0-2.239-1.433c-0.127.173,3.172,2.115,7.339,6.547a69.73,69.73,0,0,1,12.57,20,98.21,98.21,0,0,1,4.415,12.308,106.8,106.8,0,0,1,2.493,10.394c0.549,3,.867,5.441,1.059,7.135A17.156,17.156,0,0,0,223.18,299.631Z"/><polygon class="cls-2" points="202.8 336.825 204.912 365.771 242.098 365.771 244.211 336.825 202.8 336.825"/><rect class="cls-2" x="199.208" y="325.416" width="49.44" height="11.409"/><polygon class="cls-1" points="199.208 364.664 199.208 367.826 201.531 367.826 247.831 367.826 247.831 364.664 199.208 364.664"/><polygon class="cls-2" points="203.808 373.392 201.531 367.826 246.06 367.826 243.403 373.392 203.808 373.392"/><path class="cls-3" d="M243.521,346.286a1.206,1.206,0,0,1-.173.266l-0.556.737-2.166,2.772-0.1.123-0.093-.129-5.322-7.361h0.306l-5.24,7.419-0.164.233-0.184-.219-6.214-7.393h0.358l-0.342.43-5.556,6.966-0.185.232-0.171-.242-5.239-7.42,0.3,0.014-6.456,7.356-0.115.131-0.088-.147-2.021-3.4-0.519-.9a1.439,1.439,0,0,1-.159-0.323,1.433,1.433,0,0,1,.216.287l0.574,0.87,2.122,3.334-0.2-.016,6.353-7.445,0.16-.188,0.145,0.2,5.289,7.384-0.356-.01,5.543-6.976,0.342-.43,0.177-.222,0.182,0.217,6.2,7.408-0.348.014,5.292-7.382,0.155-.216,0.151,0.216,5.21,7.441-0.189-.006,2.254-2.7,0.6-.7A1.19,1.19,0,0,1,243.521,346.286Z"/><ellipse class="cls-3" cx="223.919" cy="336.634" rx="20.81" ry="0.231"/><ellipse class="cls-3" cx="223.992" cy="368.138" rx="22.616" ry="0.232"/><path class="cls-5" d="M585.346,374.445c0,0.144-127.149.261-283.959,0.261-156.864,0-283.986-.117-283.986-0.261s127.122-.26,283.986-0.26C458.2,374.185,585.346,374.3,585.346,374.445Z"/><path class="cls-5" d="M31.082,353.288a2.042,2.042,0,0,1,.139-0.334L31.669,352a24.012,24.012,0,0,0,1.317-3.826,33.775,33.775,0,0,0-.112-14.778,79.31,79.31,0,0,0-2.741-9.926c-1.16-3.523-2.508-7.26-3.608-11.3a43.729,43.729,0,0,1-1.782-12.993c0.167-4.6,1.527-9.184,3.024-13.75s3.038-9.044,3.5-13.541a20.637,20.637,0,0,0-2.483-12.506c-1.98-3.649-4.473-6.77-6.338-10a34.761,34.761,0,0,1-3.809-9.616,35.8,35.8,0,0,1-.241-14.9A27.75,27.75,0,0,1,19.95,219.6a2.034,2.034,0,0,1-.092.35l-0.315,1.008a38.4,38.4,0,0,0-.966,3.938,36.28,36.28,0,0,0,.387,14.786,34.655,34.655,0,0,0,3.822,9.494c1.86,3.194,4.363,6.3,6.383,9.994a21.056,21.056,0,0,1,2.56,12.76c-0.466,4.573-2.022,9.073-3.511,13.641s-2.841,9.1-3.011,13.621a43.506,43.506,0,0,0,1.739,12.861c1.082,4.021,2.414,7.759,3.56,11.292a78.34,78.34,0,0,1,2.7,9.985,33.4,33.4,0,0,1-.038,14.887,22.1,22.1,0,0,1-1.41,3.821l-0.492.938A2.007,2.007,0,0,1,31.082,353.288Z"/><path class="cls-6" d="M24.981,252.564s-3.787-12.109,3.006-19.2a0.42,0.42,0,0,1,.72.208C29.069,235.572,29.523,241.663,24.981,252.564Z"/><path class="cls-5" d="M27.249,237.4a11.134,11.134,0,0,1-.255,2.234l-0.864,5.341-0.848,5.341a12.193,12.193,0,0,1-.4,2.21,9.375,9.375,0,0,1,.068-2.251c0.125-1.384.369-3.287,0.713-5.376s0.706-3.971,1-5.326A10.1,10.1,0,0,1,27.249,237.4Z"/><path class="cls-6" d="M29.429,281.124s2.316-12.474,11.636-15.565a0.42,0.42,0,0,1,.539.52C40.989,268.017,38.541,273.613,29.429,281.124Z"/><path class="cls-5" d="M38.526,268.781a11.133,11.133,0,0,1-1.27,1.855l-3.261,4.317-3.247,4.324a12.183,12.183,0,0,1-1.388,1.766,9.371,9.371,0,0,1,1.113-1.958c0.758-1.164,1.864-2.733,3.144-4.419s2.481-3.179,3.377-4.239A10.1,10.1,0,0,1,38.526,268.781Z"/><path class="cls-6" d="M26.91,312.419S25.5,299.81,33.524,294.146a0.42,0.42,0,0,1,.667.341C34.166,296.519,33.449,302.585,26.91,312.419Z"/><path class="cls-5" d="M32.031,297.965a11.133,11.133,0,0,1-.676,2.144l-1.867,5.078-1.851,5.081a12.165,12.165,0,0,1-.815,2.093,9.387,9.387,0,0,1,.5-2.2c0.387-1.334.99-3.156,1.725-5.142s1.451-3.763,2-5.037A10.1,10.1,0,0,1,32.031,297.965Z"/><path class="cls-6" d="M33.931,343.9s-0.955-12.652,7.264-18.025a0.42,0.42,0,0,1,.654.365C41.751,328.266,40.817,334.3,33.931,343.9Z"/><path class="cls-5" d="M39.565,329.636a11.152,11.152,0,0,1-.753,2.119l-2.048,5.008-2.032,5.011a12.161,12.161,0,0,1-.89,2.063,9.386,9.386,0,0,1,.575-2.177c0.434-1.32,1.1-3.119,1.908-5.077s1.584-3.708,2.179-4.962A10.09,10.09,0,0,1,39.565,329.636Z"/><path class="cls-6" d="M19.539,241.925s-11.246-5.873-11.467-15.69a0.42,0.42,0,0,1,.656-0.363C10.4,227.028,15.031,231.01,19.539,241.925Z"/><path class="cls-5" d="M10.407,229.607a11.131,11.131,0,0,1,1.4,1.759l3.17,4.384,3.182,4.373a12.168,12.168,0,0,1,1.281,1.845,9.381,9.381,0,0,1-1.54-1.638c-0.891-1.066-2.066-2.583-3.3-4.3s-2.312-3.3-3.062-4.471A10.1,10.1,0,0,1,10.407,229.607Z"/><path class="cls-6" d="M31.615,267.931s-11.582-5.179-12.4-14.964a0.42,0.42,0,0,1,.633-0.4C21.588,253.617,26.453,257.31,31.615,267.931Z"/><path class="cls-5" d="M21.752,256.19a11.137,11.137,0,0,1,1.5,1.67l3.431,4.183,3.441,4.171a12.169,12.169,0,0,1,1.391,1.764,9.38,9.38,0,0,1-1.642-1.541c-0.954-1.01-2.219-2.453-3.558-4.094s-2.508-3.158-3.328-4.277A10.1,10.1,0,0,1,21.752,256.19Z"/><path class="cls-6" d="M24.951,296.939S17,287.053,20.728,277.97a0.42,0.42,0,0,1,.746-0.07C22.543,279.629,25.192,285.132,24.951,296.939Z"/><path class="cls-5" d="M21.517,281.995a11.132,11.132,0,0,1,.58,2.173l1.149,5.287,1.164,5.281a12.171,12.171,0,0,1,.435,2.2,9.374,9.374,0,0,1-.76-2.12c-0.389-1.334-.858-3.2-1.3-5.265s-0.8-3.954-1.015-5.324A10.1,10.1,0,0,1,21.517,281.995Z"/><path class="cls-6" d="M32.828,331.075S21.334,325.7,20.682,315.9a0.42,0.42,0,0,1,.639-0.391C23.042,316.6,27.845,320.369,32.828,331.075Z"/><path class="cls-5" d="M23.164,319.171a11.138,11.138,0,0,1,1.477,1.7L28,325.106l3.371,4.228a12.175,12.175,0,0,1,1.361,1.787,9.375,9.375,0,0,1-1.616-1.568c-0.937-1.026-2.177-2.49-3.488-4.153s-2.455-3.2-3.256-4.333A10.1,10.1,0,0,1,23.164,319.171Z"/><path class="cls-5" d="M55.721,281.192a0.942,0.942,0,0,1,.014.279c-0.005.221-.012,0.487-0.02,0.811l-0.136,3.076-0.6,10.986v0.026c-0.82,4.591-3.159,9.68-6.3,14.62-2.3,3.639-4.719,6.948-6.8,10.026a71.044,71.044,0,0,0-5.1,8.429,35.741,35.741,0,0,0-2.386,6.186c-0.2.758-.354,1.349-0.441,1.753a3.193,3.193,0,0,1-.168.611,3.151,3.151,0,0,1,.074-0.629c0.057-.412.181-1.012,0.356-1.781a32.647,32.647,0,0,1,2.262-6.286,67.245,67.245,0,0,1,5.039-8.528c2.069-3.1,4.471-6.413,6.763-10.034,3.124-4.916,5.45-9.927,6.3-14.445v0.026c0.317-4.507.581-8.274,0.771-10.976l0.248-3.069,0.081-.807A0.942,0.942,0,0,1,55.721,281.192Z"/><path class="cls-6" d="M48.878,310.047s4.868-11.716-1.255-19.393a0.42,0.42,0,0,0-.736.142C46.344,292.755,45.341,298.78,48.878,310.047Z"/><path class="cls-5" d="M47.991,294.74a10.1,10.1,0,0,1,.386,2.217c0.172,1.377.365,3.283,0.516,5.395s0.223,4.03.223,5.419a9.362,9.362,0,0,1-.136,2.248,12.192,12.192,0,0,1-.2-2.237l-0.361-5.4-0.377-5.4A11.141,11.141,0,0,1,47.991,294.74Z"/><g class="cls-7"><path d="M48.878,310.047s4.868-11.716-1.255-19.393a0.42,0.42,0,0,0-.736.142C46.344,292.755,45.341,298.78,48.878,310.047Z"/></g><path class="cls-6" d="M33.8,338.282s3.9-12.073-2.824-19.227a0.42,0.42,0,0,0-.722.2C29.874,321.252,29.363,327.338,33.8,338.282Z"/><path class="cls-5" d="M31.676,323.1a10.094,10.094,0,0,1,.564,2.178c0.283,1.358.63,3.243,0.952,5.335s0.549,4,.661,5.383a9.366,9.366,0,0,1,.046,2.251,12.193,12.193,0,0,1-.38-2.214l-0.8-5.349-0.813-5.349A11.144,11.144,0,0,1,31.676,323.1Z"/><g class="cls-7"><path d="M33.8,338.282s3.9-12.073-2.824-19.227a0.42,0.42,0,0,0-.722.2C29.874,321.252,29.363,327.338,33.8,338.282Z"/></g><path class="cls-6" d="M55.077,295.728s10.394-7.276,9.345-17.039a0.42,0.42,0,0,0-.7-0.275C62.216,279.776,58.137,284.323,55.077,295.728Z"/><g class="cls-7"><path d="M55.077,295.728s10.394-7.276,9.345-17.039a0.42,0.42,0,0,0-.7-0.275C62.216,279.776,58.137,284.323,55.077,295.728Z"/></g><path class="cls-5" d="M62.541,282.334a10.091,10.091,0,0,1-.864,2.078c-0.593,1.254-1.453,2.967-2.459,4.829s-1.973,3.521-2.719,4.693a9.383,9.383,0,0,1-1.321,1.824,12.167,12.167,0,0,1,1.032-2l2.59-4.747,2.578-4.757A11.155,11.155,0,0,1,62.541,282.334Z"/><path class="cls-6" d="M37.992,326.313s12.536-1.954,15.894-11.181a0.42,0.42,0,0,0-.5-0.554C51.427,315.136,45.763,317.421,37.992,326.313Z"/><g class="cls-7"><path d="M37.992,326.313s12.536-1.954,15.894-11.181a0.42,0.42,0,0,0-.5-0.554C51.427,315.136,45.763,317.421,37.992,326.313Z"/></g><path class="cls-5" d="M50.593,317.576a10.1,10.1,0,0,1-1.69,1.485c-1.085.865-2.612,2.023-4.335,3.253s-3.322,2.291-4.508,3.015a9.367,9.367,0,0,1-1.989,1.055,12.186,12.186,0,0,1,1.805-1.336l4.416-3.121,4.409-3.135A11.153,11.153,0,0,1,50.593,317.576Z"/><polygon class="cls-8" points="26.033 349.383 22.376 373.996 45.165 373.996 42.211 349.383 26.033 349.383"/><ellipse class="cls-5" cx="33.932" cy="357.01" rx="9.189" ry="0.237"/><ellipse class="cls-5" cx="34.083" cy="358.968" rx="9.491" ry="0.237"/><circle class="cls-2" cx="163.234" cy="30.01" r="29.481"/><path class="cls-9" d="M163.233,54.548A24.538,24.538,0,1,1,187.771,30.01h0A24.565,24.565,0,0,1,163.233,54.548Zm0-44.876A20.338,20.338,0,1,0,183.572,30.01,20.338,20.338,0,0,0,163.233,9.672h0Z"/><path class="cls-9" d="M163.069,38.4a9.037,9.037,0,1,1,9.037-9.037A9.037,9.037,0,0,1,163.069,38.4Zm0-13.875a4.838,4.838,0,1,0,4.838,4.838h0a4.843,4.843,0,0,0-4.838-4.839h0Z"/><polygon class="cls-8" points="163.069 29.362 151.646 29.362 153.637 32.886 126.751 45.209 127.658 46.72 154.635 34.541 156.483 38.041 163.069 29.362"/><path class="cls-5" d="M126.751,45.209l-0.285-.278a5.462,5.462,0,0,0-5.338-1.332L110.4,46.72l5.972,2.624-2.4,6.381,10.062-3.588a5.462,5.462,0,0,0,3.621-5.417h0Z"/><rect class="cls-4" x="408.422" y="0.185" width="87.625" height="82.716" rx="3.494" ry="3.494"/><path class="cls-5" d="M492.552,82.9a5.3,5.3,0,0,0,.85-0.128,3.5,3.5,0,0,0,2.008-1.422,3.453,3.453,0,0,0,.579-1.729c0.019-.682,0-1.438,0-2.252,0-1.631-.011-3.511-0.017-5.627-0.014-8.475-.034-20.726-0.059-35.863-0.007-7.571-.014-15.863-0.022-24.765V4.325a5.053,5.053,0,0,0-.161-1.666,3.36,3.36,0,0,0-.879-1.394A3.288,3.288,0,0,0,493.4.459a6.6,6.6,0,0,0-1.72-.112l-14.627.008-65.128.015a3.323,3.323,0,0,0-3.13,2.218,5.959,5.959,0,0,0-.188,2.066V6.8q0,4.279,0,8.5,0,8.439,0,16.618c0,10.9-.007,21.4-0.011,31.415q0,7.508-.008,14.629c0.007,0.586-.016,1.2.015,1.757a3.334,3.334,0,0,0,3.389,3.03h6.79l24.766,0.023L479.4,82.829l9.75,0.035,2.535,0.018c0.571,0.006.864,0.019,0.864,0.019s-0.293.013-.864,0.019l-2.535.018-9.75.035-35.861.059-24.766.023h-6.79a3.651,3.651,0,0,1-3.709-3.315c-0.034-.617-0.01-1.187-0.018-1.786q0-7.114-.008-14.629c0-10.011-.007-20.52-0.011-31.415q0-8.171,0-16.618,0-4.22,0-8.5V4.654l0.005-1.079a3.56,3.56,0,0,1,.2-1.109A3.693,3.693,0,0,1,411.924,0l65.128,0.014,14.627,0.008h0.888a3.749,3.749,0,0,1,.914.123,3.609,3.609,0,0,1,1.588.887,3.68,3.68,0,0,1,.961,1.529,5.35,5.35,0,0,1,.174,1.763q0,3.45,0,6.789c-0.008,8.9-.016,17.194-0.023,24.765-0.025,15.137-.045,27.388-0.059,35.863-0.006,2.116-.012,4-0.017,5.627-0.008.816,0.005,1.565-.02,2.258a3.5,3.5,0,0,1-2.67,3.182A2.843,2.843,0,0,1,492.552,82.9Z"/><rect class="cls-6" x="423.713" y="33.303" width="4.724" height="40.587"/><rect class="cls-6" x="445.182" y="30.01" width="4.724" height="43.88"/><rect class="cls-6" x="467.419" y="24.437" width="4.724" height="49.453"/><rect class="cls-5" x="456.974" y="54.128" width="4.724" height="19.763"/><rect class="cls-8" x="429.219" y="28.955" width="4.724" height="44.935"/><rect class="cls-8" x="451.072" y="19.541" width="4.724" height="54.349"/><rect class="cls-5" x="479.602" y="19.541" width="4.724" height="54.349"/><rect class="cls-8" x="473.729" y="8.808" width="4.724" height="65.083"/><rect class="cls-5" x="434.997" y="45.371" width="4.724" height="28.519"/><ellipse class="cls-5" cx="453.441" cy="76.352" rx="37.644" ry="0.184"/><rect class="cls-5" x="413.608" y="66.67" width="2.882" height="1.081"/><rect class="cls-5" x="413.608" y="52.227" width="2.882" height="1.081"/><rect class="cls-5" x="413.608" y="25.045" width="2.882" height="1.081"/><rect class="cls-5" x="413.608" y="11.384" width="2.882" height="1.081"/><rect class="cls-5" x="413.754" y="38.636" width="2.882" height="1.081"/><rect class="cls-9" x="186.199" y="26.971" width="230.348" height="179.273"/><path class="cls-5" d="M416.547,206.245c0-1.789-.085-71.087-0.215-179.273l0.215,0.215-230.328.045H186.2l0.26-.26c-0.009,64.62-.019,125.74-0.026,179.273l-0.234-.234,230.348,0.234-230.348.234h-0.234v-0.234c-0.008-53.533-.017-114.653-0.026-179.273V26.711h0.28l230.328,0.045h0.216v0.215C416.632,135.157,416.549,204.457,416.547,206.245Z"/><ellipse class="cls-5" cx="254.271" cy="143.881" rx="0.26" ry="40.401"/><ellipse class="cls-5" cx="347.083" cy="143.881" rx="0.26" ry="40.401"/><path class="cls-5" d="M285.956,184.281c-0.144,0-.261-23.126-0.261-51.646s0.117-51.651.261-51.651,0.26,23.121.26,51.651S286.1,184.281,285.956,184.281Z"/><path class="cls-5" d="M221.728,184.281c-0.144,0-.26-23.126-0.26-51.646s0.117-51.651.26-51.651,0.26,23.121.26,51.651S221.872,184.281,221.728,184.281Z"/><path class="cls-5" d="M383.512,184.281c-0.144,0-.26-23.126-0.26-51.646s0.116-51.651.26-51.651,0.26,23.121.26,51.651S383.656,184.281,383.512,184.281Z"/><path class="cls-5" d="M313.741,184.281c-0.144,0-.26-26.7-0.26-59.633s0.117-59.638.26-59.638,0.26,26.7.26,59.638S313.885,184.281,313.741,184.281Z"/><circle class="cls-5" cx="254.271" cy="103.479" r="0.758"/><circle class="cls-5" cx="285.956" cy="80.984" r="0.758"/><path class="cls-6" d="M285.956,83.68a2.7,2.7,0,1,1,2.7-2.7,2.7,2.7,0,0,1-2.7,2.7h0Zm0-5.143a2.446,2.446,0,1,0,2.447,2.446A2.446,2.446,0,0,0,285.956,78.537Z"/><circle class="cls-5" cx="313.741" cy="65.01" r="0.758"/><circle class="cls-5" cx="347.083" cy="104.237" r="0.758"/><circle class="cls-5" cx="383.53" cy="80.984" r="0.758"/><circle class="cls-5" cx="221.728" cy="81.741" r="0.758"/><path class="cls-6" d="M390.689,117.542c0.019,0.087-.833.2-2.3,0.827a16.689,16.689,0,0,0-5.472,4.21c-2.051,2.241-4.106,5.362-6.7,8.879a42.952,42.952,0,0,1-4.579,5.342,25.528,25.528,0,0,1-2.986,2.48,20.814,20.814,0,0,1-3.605,1.981,20.35,20.35,0,0,1-8.646,1.472,23.248,23.248,0,0,1-4.651-.576,12.231,12.231,0,0,1-4.534-1.988,14.652,14.652,0,0,1-3.538-3.679c-0.972-1.4-1.841-2.881-2.678-4.381-1.669-3.017-3.4-6.03-5.359-9.078-1.943-3.088-3.737-6.338-5.733-9.528a46.929,46.929,0,0,0-6.97-8.986,20.087,20.087,0,0,0-4.661-3.308,17.768,17.768,0,0,0-2.658-1.088c-0.465-.12-0.94-0.2-1.41-0.31L313.5,99.66c-0.237-.046-0.483-0.04-0.724-0.063a20.067,20.067,0,0,0-11.449,2.434,29.69,29.69,0,0,0-8.746,8.165,90,90,0,0,0-6.3,10.108c-3.81,6.9-8.008,13.472-13.564,18.4a23.261,23.261,0,0,1-9.438,5.255,18.059,18.059,0,0,1-5.217.571,19.737,19.737,0,0,1-4.986-.931,33.581,33.581,0,0,1-8.376-4.4c-2.48-1.714-4.743-3.484-6.95-5.08a37.053,37.053,0,0,0-6.569-4,21.74,21.74,0,0,0-6.528-1.874,16.113,16.113,0,0,0-5.865.359,9.753,9.753,0,0,0-1.27.4,8.048,8.048,0,0,0-1.188.463,15.255,15.255,0,0,0-2.08,1.141,22.374,22.374,0,0,0-3.141,2.486c-0.775.87-1.5,1.554-1.981,2.2a14.583,14.583,0,0,1-1.553,1.9,14.467,14.467,0,0,1,1.3-2.1c0.446-.679,1.144-1.408,1.9-2.329a21.634,21.634,0,0,1,3.138-2.667,15.522,15.522,0,0,1,2.128-1.247,8.516,8.516,0,0,1,1.228-.516,10.3,10.3,0,0,1,1.321-.456,16.719,16.719,0,0,1,6.151-.509,22.433,22.433,0,0,1,6.84,1.834,37.612,37.612,0,0,1,6.808,4.01c2.25,1.584,4.529,3.323,6.986,4.982a32.6,32.6,0,0,0,8.1,4.158,18.488,18.488,0,0,0,4.646.83,16.746,16.746,0,0,0,4.814-.565,21.941,21.941,0,0,0,8.837-5.008c5.3-4.746,9.418-11.2,13.178-18.065a90.462,90.462,0,0,1,6.386-10.289,31.115,31.115,0,0,1,9.223-8.6,21.569,21.569,0,0,1,12.377-2.621c0.264,0.026.532,0.023,0.792,0.073l0.779,0.166c0.518,0.116,1.04.213,1.55,0.347a19.247,19.247,0,0,1,2.915,1.2,21.571,21.571,0,0,1,5.014,3.573,48.066,48.066,0,0,1,7.186,9.31c2.011,3.244,3.791,6.5,5.687,9.553,1.94,3.053,3.708,6.174,5.338,9.172,1.662,2.96,3.278,5.911,5.771,7.676a10.983,10.983,0,0,0,4.078,1.826,22.159,22.159,0,0,0,4.4.587,19.288,19.288,0,0,0,8.179-1.289,19.87,19.87,0,0,0,3.432-1.826,24.755,24.755,0,0,0,2.9-2.334,42.971,42.971,0,0,0,4.568-5.15,108.755,108.755,0,0,1,6.949-8.765,16.031,16.031,0,0,1,5.8-4.087,9.694,9.694,0,0,1,1.791-.474A1.885,1.885,0,0,1,390.689,117.542Z"/><rect class="cls-5" x="220.97" y="50.524" width="37.289" height="2.075"/><rect class="cls-5" x="220.97" y="55.38" width="18.427" height="2.075"/><rect class="cls-5" x="186.199" y="21.745" width="230.348" height="14.401"/><polygon class="cls-10" points="520.754 318.731 554.236 359.727 562.715 349.371 537.398 312.695 520.754 318.731"/><path class="cls-6" d="M553.526,360.729l-1.015-.934,9.754-11.468,4.2,3.84-0.586.722c-2.632,3.19-13.607,16.034-16.094,17.5C547.008,372.014,553.526,360.729,553.526,360.729Z"/><g class="cls-11"><path class="cls-9" d="M562.7,356.075a5.191,5.191,0,0,1-1.05-3.567,5.042,5.042,0,0,1,1.573-3.308l3.075,2.834Z"/></g><g class="cls-11"><path class="cls-9" d="M550.5,366.393s-2.078,4.147-1.161,4.236,12.5-12.474,17.119-18.462l-0.262-.209-13.382,14.769S551.122,365.778,550.5,366.393Z"/></g><path class="cls-5" d="M566.352,351.779a1.371,1.371,0,0,1-.154.208l-0.468.574-1.757,2.079c-1.5,1.745-3.6,4.129-5.97,6.71s-4.578,4.871-6.193,6.506l-1.927,1.923-0.533.514a0.13,0.13,0,1,1-.026-0.026l0.509-.538,1.885-1.963c1.591-1.658,3.777-3.96,6.152-6.54s4.486-4.948,6.007-6.671l1.8-2.041,0.494-.551A1.4,1.4,0,0,1,566.352,351.779Z"/><path class="cls-5" d="M552.991,366.882a3.953,3.953,0,0,0-2.693-.53A2.418,2.418,0,0,1,552.991,366.882Z"/><ellipse class="cls-5" cx="553.485" cy="361.893" rx="0.091" ry="0.738" transform="translate(98.848 842.12) rotate(-79.746)"/><ellipse class="cls-5" cx="554.06" cy="360.856" rx="0.628" ry="0.091" transform="translate(-31.468 53.682) rotate(-5.394)"/><ellipse class="cls-5" cx="553.645" cy="359.857" rx="0.782" ry="0.091" transform="translate(-84.313 530.237) rotate(-47.976)"/><path class="cls-5" d="M553.613,358.4a2.2,2.2,0,0,1-1.1,1.393Q553.072,359.1,553.613,358.4Z"/><path class="cls-5" d="M553.033,361.605a2.773,2.773,0,0,1-.656.7,5.637,5.637,0,0,1-.86.6,2.8,2.8,0,0,1-.575.267,0.52,0.52,0,0,1-.381-0.027,0.379,0.379,0,0,1-.184-0.368,1.763,1.763,0,0,1,1.857-1.254,1.718,1.718,0,0,1,.684.2,0.532,0.532,0,0,1,.208.158,2.716,2.716,0,0,0-.9-0.234,1.733,1.733,0,0,0-.949.242,1.491,1.491,0,0,0-.72.9c-0.02.189,0.152,0.267,0.342,0.211a2.87,2.87,0,0,0,.536-0.241,6.625,6.625,0,0,0,.861-0.553C552.762,361.854,553.011,361.585,553.033,361.605Z"/><path class="cls-5" d="M552.9,361.821a0.948,0.948,0,0,1-.566-0.371,1.577,1.577,0,0,1-.339-0.669,0.965,0.965,0,0,1,.182-0.921,0.383,0.383,0,0,1,.527.083,1.052,1.052,0,0,1,.205.411,2.908,2.908,0,0,1,.12.728,1.387,1.387,0,0,1-.087.668c-0.029,0,0-.258-0.041-0.659a3.363,3.363,0,0,0-.151-0.687c-0.06-.235-0.267-0.549-0.463-0.4a0.86,0.86,0,0,0-.129.742,1.58,1.58,0,0,0,.275.624A3.505,3.505,0,0,0,552.9,361.821Z"/><path class="cls-5" d="M563.134,349.229c0.023,0.025-.32.288-0.72,0.839a4.688,4.688,0,0,0-.359,5c0.317,0.6.619,0.911,0.593,0.933a0.865,0.865,0,0,1-.222-0.2,3.936,3.936,0,0,1-.483-0.667,4.548,4.548,0,0,1,.369-5.139,3.941,3.941,0,0,1,.573-0.591A0.865,0.865,0,0,1,563.134,349.229Z"/><path class="cls-5" d="M560.359,356.482A12.293,12.293,0,0,1,557.4,359.7c-0.035-.04.676-0.712,1.49-1.6S560.317,356.45,560.359,356.482Z"/><path class="cls-5" d="M562.331,354.311a7.6,7.6,0,0,1,.364.86A0.737,0.737,0,0,1,562.331,354.311Z"/><ellipse class="cls-5" cx="562.086" cy="352.969" rx="0.091" ry="0.399" transform="translate(-16.162 27.152) rotate(-2.728)"/><path class="cls-5" d="M562.679,350.978a5.572,5.572,0,0,0-.363.817A0.6,0.6,0,0,1,562.679,350.978Z"/><ellipse class="cls-5" cx="563.133" cy="350.171" rx="0.241" ry="0.091" transform="translate(31.16 746.079) rotate(-68.532)"/><polygon class="cls-10" points="464.046 352.014 461.095 370.142 476.598 370.142 480.166 355.375 464.046 352.014"/><path class="cls-6" d="M461.59,370.531l0.047-1.378,15.055-.07-0.18,5.686-0.929.026c-4.135.081-21.03,0.12-23.758-.815C448.781,372.936,461.59,370.531,461.59,370.531Z"/><g class="cls-11"><path class="cls-9" d="M471.094,374.456a5.191,5.191,0,0,1,2.023-3.12,5.043,5.043,0,0,1,3.535-.962l-0.147,4.18Z"/></g><g class="cls-11"><path class="cls-9" d="M455.324,371.927s-4.5,1.125-3.97,1.878,17.6,1.356,25.159.963l-0.012-.335-19.922-.533S456.193,371.995,455.324,371.927Z"/></g><path class="cls-5" d="M476.735,374.432a1.4,1.4,0,0,1-.258.019l-0.74.018-2.722.021c-2.3,0-5.474-.038-8.98-0.159s-6.678-.3-8.971-0.461l-2.714-.209-0.737-.07a0.13,0.13,0,1,1,0-.036l0.739,0.036,2.717,0.151c2.294,0.127,5.465.286,8.969,0.408s6.677,0.181,8.974.212l2.721,0.036,0.74,0.016A1.374,1.374,0,0,1,476.735,374.432Z"/><path class="cls-5" d="M456.573,374.133a3.953,3.953,0,0,0-1.352-2.389A2.418,2.418,0,0,1,456.573,374.133Z"/><ellipse class="cls-5" cx="460.692" cy="371.412" rx="0.091" ry="0.737" transform="translate(-124.582 284.016) rotate(-30.383)"/><ellipse class="cls-5" cx="461.846" cy="371.012" rx="0.091" ry="0.628" transform="translate(-125.807 445.951) rotate(-46.043)"/><ellipse class="cls-5" cx="462.332" cy="370.05" rx="0.091" ry="0.782" transform="translate(81.271 823.349) rotate(-88.622)"/><path class="cls-5" d="M463.412,369.081a2.2,2.2,0,0,1-1.774.071Q462.525,369.128,463.412,369.081Z"/><path class="cls-5" d="M460.6,370.727a2.773,2.773,0,0,1-.961-0.04,5.629,5.629,0,0,1-1.015-.262,2.808,2.808,0,0,1-.577-0.262,0.52,0.52,0,0,1-.227-0.307,0.378,0.378,0,0,1,.159-0.379,1.763,1.763,0,0,1,2.161.592,1.719,1.719,0,0,1,.291.652,0.532,0.532,0,0,1,.016.26,2.72,2.72,0,0,0-.409-0.835,1.734,1.734,0,0,0-.8-0.562,1.491,1.491,0,0,0-1.148.038c-0.157.108-.1,0.289,0.063,0.4a2.866,2.866,0,0,0,.532.25,6.613,6.613,0,0,0,.981.292C460.239,370.684,460.605,370.7,460.6,370.727Z"/><path class="cls-5" d="M460.353,370.766a0.948,0.948,0,0,1-.087-0.671,1.577,1.577,0,0,1,.287-0.693,0.966,0.966,0,0,1,.817-0.462,0.383,0.383,0,0,1,.281.454,1.052,1.052,0,0,1-.178.424,2.913,2.913,0,0,1-.474.565,1.388,1.388,0,0,1-.564.37c-0.016-.024.2-0.166,0.473-0.461a3.362,3.362,0,0,0,.423-0.562c0.139-.2.242-0.56,0-0.612a0.86,0.86,0,0,0-.647.386,1.582,1.582,0,0,0-.294.615A3.5,3.5,0,0,0,460.353,370.766Z"/><path class="cls-5" d="M476.574,370.33c0,0.034-.427-0.056-1.106,0a4.688,4.688,0,0,0-4.027,2.984c-0.251.633-.288,1.063-0.322,1.058a0.864,0.864,0,0,1,.01-0.3,3.931,3.931,0,0,1,.191-0.8,4.548,4.548,0,0,1,4.139-3.067,3.937,3.937,0,0,1,.822.05A0.867,0.867,0,0,1,476.574,370.33Z"/><path class="cls-5" d="M469.264,372.948a12.288,12.288,0,0,1-4.371-.146c0.007-.052.981,0.049,2.185,0.088S469.26,372.9,469.264,372.948Z"/><path class="cls-5" d="M472.2,373.031a7.576,7.576,0,0,1-.416.837A0.737,0.737,0,0,1,472.2,373.031Z"/><ellipse class="cls-5" cx="473.058" cy="371.965" rx="0.399" ry="0.091" transform="translate(-126.254 426.434) rotate(-43.371)"/><path class="cls-5" d="M474.951,371.123a5.562,5.562,0,0,0-.856.257A0.6,0.6,0,0,1,474.951,371.123Z"/><ellipse class="cls-5" cx="475.858" cy="370.948" rx="0.241" ry="0.091" transform="translate(-95.476 176.988) rotate(-19.186)"/><path class="cls-6" d="M522.922,135.308l-25.439,2.164s-7.632.176-15.9,19.535l-5.725,11.261,11.151,7.113h0l0.473,7.019,1.014,28.348,47.167-3.47c-1.067-6.436-6.092-14.9-7.782-20.336,1.713-4.285,11.676-21.761,11.662-30.752-0.03-19.222-16.625-20.883-16.625-20.883"/><path class="cls-4" d="M511.7,175.6a8.286,8.286,0,0,0-3.326-.322,15.336,15.336,0,0,0-3.533.929,23.884,23.884,0,0,1-4.39,1.313,14.858,14.858,0,0,1-8.219-.988,13.146,13.146,0,0,1-2.216-1.212,2.931,2.931,0,0,1-.712-0.592c0.052-.081,1.111.713,3.066,1.462a15.556,15.556,0,0,0,8,.816,26,26,0,0,0,4.318-1.253,14.267,14.267,0,0,1,3.658-.842,6.563,6.563,0,0,1,2.526.272A2.068,2.068,0,0,1,511.7,175.6Z"/><path class="cls-4" d="M484.678,167.606c-0.113.109-1.3-1.088-3.106-2.033-1.8-.965-3.453-1.275-3.427-1.429A8.355,8.355,0,0,1,484.678,167.606Z"/><path class="cls-4" d="M498.494,184.4a8.457,8.457,0,0,1,0-1.52c0.009-.49.038-1.088,0.118-1.779s0.13-1.483.282-2.346a50.9,50.9,0,0,1,1.28-6.016,73.124,73.124,0,0,1,2.426-7.127,122.08,122.08,0,0,1,5.9-12.316c0.831-1.536,1.523-2.767,2.013-3.612a8.478,8.478,0,0,1,.807-1.287,8.468,8.468,0,0,1-.628,1.383l-1.865,3.687c-1.572,3.112-3.75,7.413-5.738,12.339-0.982,2.466-1.8,4.859-2.448,7.064a57.778,57.778,0,0,0-1.378,5.944c-0.175.853-.257,1.635-0.356,2.319s-0.165,1.276-.2,1.761A8.523,8.523,0,0,1,498.494,184.4Z"/><path class="cls-4" d="M487.292,159.838a3.52,3.52,0,0,1,.274-0.936c0.2-.592.542-1.434,1-2.457a49.975,49.975,0,0,1,9.817-14.408c0.786-.8,1.445-1.421,1.922-1.827a3.518,3.518,0,0,1,.771-0.6c0.057,0.061-.93,1.028-2.425,2.677A61.856,61.856,0,0,0,488.9,156.6C487.908,158.6,487.369,159.868,487.292,159.838Z"/><path class="cls-4" d="M516.214,157.062c-0.027.052-.436-0.223-1.266-0.4a8.22,8.22,0,0,0-3.568.248,19.63,19.63,0,0,1-5.4.908,12.6,12.6,0,0,1-6.234-2.483c-1.962-1.36-3.647-2.854-5.363-3.931a11.175,11.175,0,0,0-4.943-1.878,7.068,7.068,0,0,0-3.521.473c-0.781.342-1.15,0.658-1.181,0.618a0.9,0.9,0,0,1,.248-0.25,4.307,4.307,0,0,1,.847-0.551,6.859,6.859,0,0,1,3.639-.657A11.215,11.215,0,0,1,494.634,151c1.771,1.082,3.481,2.577,5.4,3.908a12.411,12.411,0,0,0,5.971,2.434,20.671,20.671,0,0,0,5.3-.789,7.833,7.833,0,0,1,3.693-.085,3.526,3.526,0,0,1,.933.392A0.9,0.9,0,0,1,516.214,157.062Z"/><path class="cls-5" d="M487.485,182.4a17.192,17.192,0,0,0-.085-4.16,35.85,35.85,0,0,0-1.056-4.41,36.791,36.791,0,0,1-1.29-5.473,10.788,10.788,0,0,1,.638-5.619,13.575,13.575,0,0,1,2.577-3.832,27.454,27.454,0,0,1,2.227-2.146,4.578,4.578,0,0,1,.9-0.7c0.069,0.069-1.144,1.146-2.846,3.086a14,14,0,0,0-2.409,3.771,10.585,10.585,0,0,0-.564,5.371,40.437,40.437,0,0,0,1.236,5.41,31.225,31.225,0,0,1,.959,4.49,12.17,12.17,0,0,1,0,3.106A4.722,4.722,0,0,1,487.485,182.4Z"/><path class="cls-5" d="M488.492,210.748s-11.4,34.882-15.738,68.614-9.647,80.113-9.647,80.113l15.642,0.311L507.7,269.258l29.454-41.7-2.922-25.417Z"/><polyline class="cls-5" points="489.829 214.999 500.682 304.402 544.849 349.2 554.547 335.813 523.244 286.156 530.286 207.984 488.098 216"/><path class="cls-8" d="M519.962,253.734a2.233,2.233,0,0,1-.253.5,15.008,15.008,0,0,1-.868,1.341,34.506,34.506,0,0,1-3.935,4.348,66.568,66.568,0,0,0-6.008,6.2,28.017,28.017,0,0,0-4.545,9.426c-1.051,3.608-2.018,7.068-2.663,10.256-0.687,3.185-1.134,6.1-1.9,8.478s-1.455,4.227-1.843,5.55c-0.4,1.316-.566,2.063-0.608,2.055a2.242,2.242,0,0,1,.066-0.553c0.064-.359.174-0.886,0.347-1.556,0.33-1.346.984-3.243,1.685-5.6s1.117-5.268,1.78-8.469c0.625-3.219,1.579-6.686,2.635-10.312a27.931,27.931,0,0,1,4.667-9.571,61.733,61.733,0,0,1,6.131-6.17,39.847,39.847,0,0,0,4.027-4.2C519.529,254.367,519.917,253.707,519.962,253.734Z"/><path class="cls-8" d="M523.624,285.54a36.817,36.817,0,0,0-3.241,2.694,36.747,36.747,0,0,0-2.513,3.384A9.076,9.076,0,0,1,523.624,285.54Z"/><path class="cls-8" d="M523.051,286.12q-3.341.239-6.667,0.647A10.236,10.236,0,0,1,523.051,286.12Z"/><polygon class="cls-6" points="452.614 174.78 450.168 185.466 482.4 187.457 452.614 174.78"/><g class="cls-7"><polygon points="452.614 174.78 450.168 185.466 482.4 187.457 452.614 174.78"/></g><path class="cls-8" d="M561.551,205.7a59.4,59.4,0,0,0-5.091-3.488c-0.544-.115-3.789,2.47-3.789,2.47s1.082-4.461-.858-6.717-5.048-2.342-8.672.02-11.107,3.486-11.107,3.486l-2.363-3.624c-1.181-1.812-2.606-1.117-7.462-1s-17.873-6.892-17.873-6.892-7.194-5.2-15.872-11.578l1.955-2.489a3.5,3.5,0,0,0-.588-4.915l0,0h0a3.5,3.5,0,0,0-4.915.587l0,0-0.225.287a2.518,2.518,0,0,0-4.256-2.633l-0.952,1.212a2.51,2.51,0,0,0-4.315-1.909c-5.109-3.829-9.763-7.383-12.83-9.864-10.926-8.839-13.6-25.174-13.6-25.174-4.046.995-4.018,3.558-4.047,6.394-0.007.734,0.015,1.368,0.018,1.942a16.056,16.056,0,0,0-9.7-.365,14.8,14.8,0,0,0-6.7,4.179,4.12,4.12,0,1,0-1.4,1.57,4.075,4.075,0,0,0,.328-0.264,13.413,13.413,0,0,0-1.853,3.481,13.094,13.094,0,0,0,2.462,12.8l1.506,0.454c-0.787.325-1.718,0.54-2.887,0.918-2.7.873-5.154,1.609-4.9,5.768,0,0,16.388-2.319,28.08,5.478,3.171,2.115,7.744,5.349,12.72,8.935l-0.226.288a2.519,2.519,0,0,0,2.737,3.959l-0.913,1.162a2.518,2.518,0,0,0,3.566,3.511l-0.226.287a3.5,3.5,0,0,0,5.508,4.327l2.956-3.762c8.895,6.544,16.271,12.063,16.271,12.063s10.566,10.34,11.9,15.008,1.1,6.236,3.181,6.824l4.163,1.176s1.157,7.478-.019,11.642-0.167,7.1,2.564,8.284,6.668-1.182,6.668-1.182-1.5,3.867-1.229,4.352a59.419,59.419,0,0,0,4.847,3.821l19.017-26.1-0.828,1.2Z"/><path class="cls-5" d="M444.709,138.828a6.614,6.614,0,0,1,.063,1.368,24.416,24.416,0,0,1-.239,3.733,9.207,9.207,0,0,1-.739,2.512,4.784,4.784,0,0,1-2.07,2.221c-1.9,1.05-4.4.946-6.182,2.448a3.7,3.7,0,0,0-1.221,2.93c-0.017,1.1.172,2.182,0.174,3.246a5.262,5.262,0,0,1-.736,2.94,6.416,6.416,0,0,1-1.834,1.891,26.057,26.057,0,0,1-3.28,1.809,3.883,3.883,0,0,1-1.318.387c-0.012-.042.455-0.18,1.233-0.571a35.173,35.173,0,0,0,3.151-1.925A6.164,6.164,0,0,0,433.388,160a4.86,4.86,0,0,0,.627-2.713c-0.012-1.015-.213-2.092-0.2-3.26a4.2,4.2,0,0,1,1.39-3.316,7.926,7.926,0,0,1,3.258-1.493,13.966,13.966,0,0,0,3.038-.984,4.375,4.375,0,0,0,1.91-1.99,9.133,9.133,0,0,0,.763-2.383,32.107,32.107,0,0,0,.4-3.676A7.2,7.2,0,0,1,444.709,138.828Z"/><path class="cls-5" d="M464.307,189.27a28.423,28.423,0,0,1,2.244-2.723c1.414-1.654,3.339-3.96,5.37-6.583s3.778-5.069,5.024-6.853a28.4,28.4,0,0,1,2.072-2.856,3.365,3.365,0,0,1-.422.853c-0.3.532-.757,1.287-1.343,2.208-1.171,1.841-2.88,4.33-4.918,6.967s-4.019,4.913-5.507,6.509c-0.744.8-1.36,1.431-1.8,1.855A3.363,3.363,0,0,1,464.307,189.27Z"/><path class="cls-5" d="M484.911,171.555a4.193,4.193,0,0,1-.6.941c-0.417.583-1.034,1.416-1.807,2.438-1.545,2.043-3.71,4.842-6.129,7.91s-4.636,5.828-6.265,7.8a26.348,26.348,0,0,1-2.739,3.117,6.159,6.159,0,0,1,.627-0.922l1.824-2.423c1.554-2.035,3.725-4.83,6.145-7.9s4.629-5.83,6.248-7.815l1.937-2.335A5.109,5.109,0,0,1,484.911,171.555Z"/><path class="cls-5" d="M475.257,195.117a22.529,22.529,0,0,1,2-2.426c1.263-1.47,2.982-3.52,4.786-5.858s3.349-4.525,4.449-6.12a22.514,22.514,0,0,1,1.837-2.551,16.176,16.176,0,0,1-1.529,2.753c-1.025,1.653-2.532,3.883-4.344,6.236s-3.587,4.375-4.925,5.787A16.17,16.17,0,0,1,475.257,195.117Z"/><path class="cls-5" d="M554.266,202.144a2.513,2.513,0,0,1-.328.489l-1.02,1.338-3.8,4.883c-3.2,4.124-7.592,9.849-12.316,16.263s-8.888,12.309-11.874,16.592l-3.536,5.074-0.975,1.371a2.509,2.509,0,0,1-.37.458,2.509,2.509,0,0,1,.282-0.517l0.894-1.425c0.784-1.233,1.945-3,3.4-5.17,2.91-4.34,7.031-10.269,11.759-16.693s9.167-12.115,12.447-16.182c1.639-2.034,2.982-3.667,3.927-4.782l1.1-1.277A2.5,2.5,0,0,1,554.266,202.144Z"/><path class="cls-10" d="M439.566,166.1c-0.22-.841.025-1.7,0.854-1.786h0a1.321,1.321,0,0,1,.9.929l2.246,7.719h0.006l-1.114-5.767c-0.22-.841.132-1.665,0.807-1.574a1.365,1.365,0,0,1,.836.943l1.8,6.45-0.8-4.243c-0.21-.951,0-1.378.492-1.466a1.038,1.038,0,0,1,.979.832l1.412,4.708c0.748,0.59,3.181,2.4,3.226,4.288a1.482,1.482,0,0,0,.319.31l0.694,0.194-0.97,4.1s-6.529-4.545-8.19-6.076a6.366,6.366,0,0,1-1.965-3.3Z"/><path class="cls-5" d="M493.549,96.346c-2.6,2.319-3.181,6.145-3.1,9.626s0.646,7.039-.287,10.393c-0.433,1.555-1.176,3.01-1.589,4.57a5.8,5.8,0,0,0,.443,4.674c1.356,2.03,4.183,2.293,6.623,2.355l5.507,0.139a1.74,1.74,0,0,0,2.2-2.1A134.955,134.955,0,0,0,500.3,96.824"/><path class="cls-10" d="M519.718,99.547l-0.049,2.5-0.5,37.468a8.036,8.036,0,0,1-8.384,7.672l-0.116-.006h0c-4.7-.1-8.523-3.739-8.537-8.134-0.014-4.613-.113-9.469-0.113-9.469s-5.943-.987-7.174-8.74c-0.612-3.856-.419-10.178-0.093-15.346a8.187,8.187,0,0,1,8.68-7.662q0.175,0.011.35,0.029Z"/><path class="cls-5" d="M496.335,109.9a1,1,0,0,0,.959,1,0.951,0.951,0,0,0,1.023-.873l0-.027a1,1,0,0,0-.958-1,0.952,0.952,0,0,0-1.024.874Z"/><path class="cls-5" d="M496.118,108.783a14.821,14.821,0,0,1,1.947-.425,15.4,15.4,0,0,1,1.97.407,0.67,0.67,0,0,0-.41-0.541,2.728,2.728,0,0,0-1.577-.486,2.621,2.621,0,0,0-1.549.5A0.63,0.63,0,0,0,496.118,108.783Z"/><path class="cls-5" d="M507.045,109.9a0.994,0.994,0,0,0,.959,1,0.951,0.951,0,0,0,1.023-.873l0-.027a1,1,0,0,0-.958-1,0.952,0.952,0,0,0-1.024.874Z"/><path class="cls-5" d="M506.636,108.982a14.893,14.893,0,0,1,1.947-.425,15.445,15.445,0,0,1,1.97.407,0.669,0.669,0,0,0-.411-0.541,2.728,2.728,0,0,0-1.577-.486,2.622,2.622,0,0,0-1.549.5A0.633,0.633,0,0,0,506.636,108.982Z"/><path class="cls-5" d="M502.753,116.918a7.087,7.087,0,0,0-1.738-.314,0.6,0.6,0,0,1-.578-0.269,1.392,1.392,0,0,1,.182-0.81l0.808-2.081A35.77,35.77,0,0,0,503.242,108a35.824,35.824,0,0,0-2.248,5.283q-0.4,1.1-.774,2.093a1.581,1.581,0,0,0-.142,1.072,0.686,0.686,0,0,0,.449.4,1.856,1.856,0,0,0,.464.065A6.961,6.961,0,0,0,502.753,116.918Z"/><path class="cls-12" d="M502.013,129.579a19.724,19.724,0,0,0,10.384-2.77s-2.519,5.326-10.279,4.6Z"/><path class="cls-12" d="M503.2,119.5a1.928,1.928,0,0,1,1.728-.716,1.76,1.76,0,0,1,1.216.652,1.115,1.115,0,0,1,.085,1.275,1.294,1.294,0,0,1-1.4.355,4.05,4.05,0,0,1-1.367-.816,1.186,1.186,0,0,1-.306-0.316,0.358,0.358,0,0,1,0-.4"/><path class="cls-5" d="M505.9,117.658a5.477,5.477,0,0,1-1.17,1.976,6.274,6.274,0,0,1-2.239.859,0.934,0.934,0,0,0,.8.24,2.891,2.891,0,0,0,1.869-.651,2.519,2.519,0,0,0,.907-1.657A0.8,0.8,0,0,0,505.9,117.658Z"/><path class="cls-5" d="M529.536,117.316a51.872,51.872,0,0,1-.872-6.745,28.137,28.137,0,0,0-4.2-12.451,18.785,18.785,0,0,0-6.295-5.934,6.039,6.039,0,0,0,3.542-3.8,4.863,4.863,0,1,0-8.215,2.059,13.591,13.591,0,0,0-6.49.414c-0.2,0-.4-0.015-0.6,0-2.575.161-5.232-.208-7.68,0.606a10.1,10.1,0,0,0-5.936,4.659c-1.313,2.56-1.05,5.608-.755,8.469a2.235,2.235,0,0,0,2.644,2.592l5.373,0.04a6.806,6.806,0,0,0,3.642-.653,2.769,2.769,0,0,0,1.158-1.5,4.118,4.118,0,0,0,2.221,2.03,10.381,10.381,0,0,0,4.8.256,9.83,9.83,0,0,0,3.1-.694q0.2,7.549.4,15.1a4.508,4.508,0,0,0,.532,2.438,4.152,4.152,0,0,0,3.241,1.388,7.769,7.769,0,0,0,4.815-.824,3.645,3.645,0,0,0,1.7-3.51,4.647,4.647,0,0,0,7.415,1.7A9.423,9.423,0,0,1,529.536,117.316Z"/><path class="cls-8" d="M506.736,91.337a19.845,19.845,0,0,0-3.591,0A11.2,11.2,0,0,0,493.19,103.3a19.837,19.837,0,0,0,.656,3.53,2.993,2.993,0,0,1-.433-0.883,10.038,10.038,0,0,1-.59-2.62A11.2,11.2,0,0,1,502.772,91q0.167-.018.334-0.031a10.035,10.035,0,0,1,2.684.1A3,3,0,0,1,506.736,91.337Z"/><path class="cls-8" d="M500.575,106.633a1.73,1.73,0,0,1-.36-0.614,9.5,9.5,0,0,1-.608-1.838,11.356,11.356,0,0,1,4.1-11.5,9.5,9.5,0,0,1,1.635-1.037,1.73,1.73,0,0,1,.667-0.247c0.043,0.08-.865.522-2.068,1.568a11.893,11.893,0,0,0-3.978,11.14C500.237,105.682,500.66,106.6,500.575,106.633Z"/><path class="cls-8" d="M504.37,101.777a3.515,3.515,0,0,1-.684-1.559,8.711,8.711,0,0,1,1.763-7.8,3.515,3.515,0,0,1,1.288-1.113,13.09,13.09,0,0,1-1,1.339,9.8,9.8,0,0,0-1.7,7.5A13.124,13.124,0,0,1,504.37,101.777Z"/><path class="cls-4" d="M540,154.417c-0.068.065-.908-0.915-2.566-2.117a17.323,17.323,0,0,0-15.148-2.646c-1.968.569-3.089,1.206-3.131,1.122a2.753,2.753,0,0,1,.756-0.5,14.054,14.054,0,0,1,2.266-.976,16.484,16.484,0,0,1,15.479,2.7,14.045,14.045,0,0,1,1.8,1.686A2.754,2.754,0,0,1,540,154.417Z"/><path class="cls-6" d="M473.592,179.457l-4.773,16.292s23.584,9.555,37.12,9.389c12.681-.156,16.557-4.255,21.5-12.532,5.763-9.647,10.21-21.774,11.272-28.551,0,0,7.159-31.186-20.15-28.4l-0.738,24.394s-3.025,10-3.243,10.575c-2.038,5.4-4.678,13.3-7.234,14.251S473.592,179.457,473.592,179.457Z"/><path class="cls-5" d="M473.592,179.457a3.6,3.6,0,0,1,.678.075l1.934,0.31c1.679,0.3,4.109.763,7.118,1.407s6.6,1.464,10.642,2.185a66.838,66.838,0,0,0,13.377,1.18l-0.235.164c0.511-1.334,1.047-2.748,1.565-4.19,3.581-10.073,6.375-19.357,8.677-25.983,1.135-3.319,2.1-5.987,2.817-7.816,0.349-.917.646-1.619,0.843-2.1a4.473,4.473,0,0,1,.329-0.717,4.494,4.494,0,0,1-.231.754l-0.751,2.129c-0.652,1.848-1.568,4.532-2.657,7.862-2.211,6.651-4.947,15.946-8.537,26.043-0.519,1.446-1.057,2.864-1.573,4.2l-0.062.161h-0.173a65.565,65.565,0,0,1-13.471-1.244c-4.058-.753-7.635-1.626-10.635-2.3s-5.413-1.207-7.079-1.56l-1.916-.4A3.6,3.6,0,0,1,473.592,179.457Z"/><path class="cls-5" d="M468.819,195.749a4.655,4.655,0,0,1,.768.238l2.176,0.744c1.894,0.632,4.65,1.5,8.089,2.457s7.558,2.016,12.143,3.147a79.144,79.144,0,0,0,15.069,2.6,27.569,27.569,0,0,0,4-.1,16.376,16.376,0,0,0,3.774-.779,18.375,18.375,0,0,0,6.207-3.764,38.56,38.56,0,0,0,7.466-9.925c1.72-3.122,2.915-5.756,3.749-7.57l0.954-2.093a4.632,4.632,0,0,1,.362-0.718,4.643,4.643,0,0,1-.265.759c-0.189.491-.477,1.212-0.865,2.134-0.778,1.841-1.923,4.5-3.612,7.665a38.1,38.1,0,0,1-7.468,10.1A18.73,18.73,0,0,1,515,204.536a16.794,16.794,0,0,1-3.885.811,27.847,27.847,0,0,1-4.07.108A77.39,77.39,0,0,1,491.88,202.8c-4.581-1.157-8.7-2.25-12.128-3.259s-6.178-1.928-8.055-2.62c-0.938-.349-1.662-0.63-2.146-0.837A4.634,4.634,0,0,1,468.819,195.749Z"/><g class="cls-13"><path d="M486.867,182.048l13.969,0.321a7.907,7.907,0,0,0,3.274-.387,7.736,7.736,0,0,0,3.242-3.419q3.678-6.065,6.742-12.474c3.064-6.409-3.693,11.731-6,16.841a2.671,2.671,0,0,1-3.271,1.682A63.11,63.11,0,0,1,486.867,182.048Z"/></g><g class="cls-13"><path d="M529.056,190.364s-4.727,17.978-16.842,17.615-23.615-5.558-23.615-5.558l0.542-.559s20.6,4.441,26.325,1.648C526.333,198.214,529.056,190.364,529.056,190.364Z"/></g><path class="cls-10" d="M469.3,194.109l-3.822-.041c-3.474-.339-5.419-0.394-6.389-1.319-1.3-1.238.486-2.453,0.486-2.453s-2.515-.863-2.279-2.4a1.525,1.525,0,0,1,1.352-1.163s-2.218-.865-2.657-1.79c-0.6-1.261.968-1.933,0.968-1.933-3.025-1.865-2.75-3.708-2.052-3.892s3.059,0.9,3.059.9c1.992,0.569,7.428,2.228,5.414-.769s-2.433-6.062-1.97-6.97a1.13,1.13,0,0,1,2.074.514,13.17,13.17,0,0,0,1.42,3.353,8.63,8.63,0,0,0,1.813,2.291c0.854,0.76,1.607,1.37,2.261,1.873l3.4,3.283Z"/><path class="cls-4" d="M534.5,179.669c-0.039.081-1.277-.5-3.359-1.207a36.4,36.4,0,0,0-16.918-1.558c-2.175.313-3.5,0.66-3.523,0.573a3.448,3.448,0,0,1,.906-0.332,22.643,22.643,0,0,1,2.557-.6,32.115,32.115,0,0,1,17.1,1.575,22.62,22.62,0,0,1,2.4,1.061A3.446,3.446,0,0,1,534.5,179.669Z"/><path class="cls-4" d="M506.686,205.021a7.424,7.424,0,0,0,.714-2.929,9.066,9.066,0,0,0-.6-3.207,22.163,22.163,0,0,0-1.873-3.6,27.841,27.841,0,0,1-1.976-3.649,9.858,9.858,0,0,1-.782-3.327,5.926,5.926,0,0,1,.328-2.283,1.9,1.9,0,0,1,.4-0.743,8.334,8.334,0,0,0-.362,3,10.263,10.263,0,0,0,.856,3.163,31.845,31.845,0,0,0,1.98,3.568,20.36,20.36,0,0,1,1.879,3.711,8.833,8.833,0,0,1,.52,3.383,5.506,5.506,0,0,1-.584,2.233A1.856,1.856,0,0,1,506.686,205.021Z"/><path class="cls-4" d="M480.786,198.831a10.165,10.165,0,0,1,.209-2.436,59.747,59.747,0,0,1,2.89-11.416,10.157,10.157,0,0,1,.975-2.242,12.949,12.949,0,0,1-.625,2.358c-0.43,1.439-1.009,3.43-1.572,5.649s-1,4.245-1.3,5.716A12.954,12.954,0,0,1,480.786,198.831Z"/><path class="cls-4" d="M533.146,139.9a5.276,5.276,0,0,1,.267,1,9.448,9.448,0,0,1,.054,2.971,21.308,21.308,0,0,1-1.181,4.551c-0.613,1.727-1.4,3.647-2.05,5.846-1.365,4.383-2.316,9.775-3.673,15.711a66,66,0,0,1-2.746,9.163,32.976,32.976,0,0,1-5.08,8.935,22.628,22.628,0,0,1-8.063,6.361,19.86,19.86,0,0,1-9.425,1.612,42.7,42.7,0,0,1-8.537-1.478c-2.62-.69-5.033-1.429-7.218-2.155-4.368-1.462-7.811-2.9-10.162-3.94-1.174-.527-2.078-0.953-2.685-1.252l-0.688-.348a0.984,0.984,0,0,1-.227-0.135,1,1,0,0,1,.249.086l0.709,0.3,2.722,1.162c2.372,0.985,5.828,2.363,10.2,3.776,2.185,0.7,4.6,1.418,7.211,2.087a42.807,42.807,0,0,0,8.453,1.417,19.45,19.45,0,0,0,9.19-1.6,22.217,22.217,0,0,0,7.871-6.226,32.68,32.68,0,0,0,5.008-8.792,66.549,66.549,0,0,0,2.753-9.086c1.378-5.907,2.369-11.314,3.788-15.709,0.676-2.207,1.494-4.132,2.128-5.837a21.953,21.953,0,0,0,1.254-4.478A11.129,11.129,0,0,0,533.146,139.9Z"/><path class="cls-10" d="M210.339,116.281a2.7,2.7,0,0,1-.041,2.563L189.37,156.222a13.231,13.231,0,0,1-17.732,4.479l-11.7-6.634,8.108-14.061,8.692,5.241,21.024-27.787a26,26,0,0,0,.311-4.656,7.032,7.032,0,0,0-.433-2.348,10.753,10.753,0,0,0-1.3-2.678,0.924,0.924,0,0,1,.8-1.552c0.808,0.2,2.467,2.109,3.227,4.962s2.665-1.384,3.386-2.916,3.177-6.165,3.824-6.317c0.948-.221,1.361.754,0.6,2.266-0.766,1.531-2.705,6.209-1.878,6.551a2.882,2.882,0,0,1,1.831,1.248Z"/><path class="cls-12" d="M207.754,111.48a6.382,6.382,0,0,1-.427,1.766l-0.6,1.864-0.37,1.094a1.582,1.582,0,0,1-.334.632,0.766,0.766,0,0,1-.871.115,2.824,2.824,0,0,1-.583-0.384,1.176,1.176,0,0,1-.432-0.629,2.345,2.345,0,0,1,.264-1.254l0.719-1.82a6.3,6.3,0,0,1,.787-1.631,6.319,6.319,0,0,1-.441,1.757l-0.614,1.858a2.176,2.176,0,0,0-.219.972,1.482,1.482,0,0,0,.728.655,0.244,0.244,0,0,0,.3-0.01,1.259,1.259,0,0,0,.22-0.445l0.4-1.084,0.7-1.824A6.256,6.256,0,0,1,207.754,111.48Z"/><path class="cls-12" d="M208.517,114.641a5.188,5.188,0,0,1-.364,1.6l-0.533,1.7-0.162.489a1.133,1.133,0,0,1-.375.561,0.784,0.784,0,0,1-.778.034,2.73,2.73,0,0,1-.532-0.342,1.322,1.322,0,0,1-.441-0.542,1.136,1.136,0,0,1-.017-0.7c0.116-.4.249-0.687,0.366-1.009l0.656-1.647a5.214,5.214,0,0,1,.729-1.473,5.219,5.219,0,0,1-.383,1.6l-0.551,1.685c-0.1.309-.24,0.664-0.321,0.967a0.592,0.592,0,0,0,.284.712,0.787,0.787,0,0,0,.7.3,2.222,2.222,0,0,0,.376-0.8l0.634-1.649A5.252,5.252,0,0,1,208.517,114.641Z"/><path class="cls-12" d="M209.907,116.393a5.191,5.191,0,0,1-.364,1.6l-0.533,1.7-0.162.489a1.132,1.132,0,0,1-.374.561,0.784,0.784,0,0,1-.778.034,2.728,2.728,0,0,1-.532-0.342,1.32,1.32,0,0,1-.441-0.542,1.135,1.135,0,0,1-.017-0.7c0.116-.4.249-0.687,0.366-1.009l0.656-1.647a5.217,5.217,0,0,1,.729-1.473,5.215,5.215,0,0,1-.383,1.6l-0.551,1.685c-0.1.309-.24,0.664-0.321,0.967a0.592,0.592,0,0,0,.285.712,0.787,0.787,0,0,0,.7.3,2.221,2.221,0,0,0,.376-0.8l0.635-1.649A5.243,5.243,0,0,1,209.907,116.393Z"/><path class="cls-12" d="M203.6,120.059a13.967,13.967,0,0,0-.37-3.05,13.982,13.982,0,0,0-1.474-2.7,1.435,1.435,0,0,1,.792.544,5.227,5.227,0,0,1,1.38,4.3A1.435,1.435,0,0,1,203.6,120.059Z"/><path class="cls-5" d="M137.322,67.77a8.838,8.838,0,0,0-9.844-1.784c-1.484.7-2.778,1.83-4.367,2.245-1.9.5-3.892-.1-5.842-0.345s-4.253.045-5.323,1.694c-0.689,1.062-.728,2.509-1.624,3.4-1.237,1.233-3.317.742-4.994,1.232a4.658,4.658,0,0,0-3.158,3.7,5.541,5.541,0,0,0,1.6,4.681,8.582,8.582,0,0,1,2,2.141c0.544,1.163.131,2.517-.079,3.783s-0.045,2.845,1.107,3.411a1.736,1.736,0,0,0,2.421-2.083l24.229-7.761c3.654,0,4.806-3.288,5.385-4.428A8.838,8.838,0,0,0,137.322,67.77Z"/><path class="cls-10" d="M108.453,76.188l0.052,2.62,0.526,39.215c0.061,4.553,4.024,8.126,8.9,8.023h0c4.922-.1,8.921-3.914,8.935-8.514,0.015-4.828.119-9.911,0.119-9.911s6.22-1.033,7.508-9.148c0.641-4.036.438-10.653,0.1-16.061a8.569,8.569,0,0,0-9.085-8.02q-0.184.011-.367,0.031Z"/><path class="cls-5" d="M132.926,87.02a1.041,1.041,0,0,1-1,1.05,1,1,0,0,1-1.072-.922V87.132a1.041,1.041,0,0,1,1-1.051,1,1,0,0,1,1.072.923V87.02Z"/><path class="cls-5" d="M133.153,85.855a15.5,15.5,0,0,0-2.037-.445,16.128,16.128,0,0,0-2.062.426,0.7,0.7,0,0,1,.43-0.566,2.856,2.856,0,0,1,1.651-.509,2.742,2.742,0,0,1,1.622.524A0.659,0.659,0,0,1,133.153,85.855Z"/><path class="cls-5" d="M121.717,87.02a1.041,1.041,0,0,1-1,1.05,1,1,0,0,1-1.072-.922V87.132a1.041,1.041,0,0,1,1-1.051,1,1,0,0,1,1.072.923V87.02Z"/><path class="cls-5" d="M122.145,86.064a15.566,15.566,0,0,0-2.038-.445,16.154,16.154,0,0,0-2.062.426,0.7,0.7,0,0,1,.43-0.566,2.855,2.855,0,0,1,1.651-.509,2.744,2.744,0,0,1,1.622.524A0.662,0.662,0,0,1,122.145,86.064Z"/><path class="cls-5" d="M126.209,94.369a7.412,7.412,0,0,1,1.819-.328,0.626,0.626,0,0,0,.6-0.281,1.457,1.457,0,0,0-.191-0.848L127.6,90.734a37.428,37.428,0,0,1-1.9-5.7,37.485,37.485,0,0,1,2.353,5.53l0.81,2.191a1.654,1.654,0,0,1,.148,1.122,0.718,0.718,0,0,1-.47.418,1.942,1.942,0,0,1-.486.068A7.288,7.288,0,0,1,126.209,94.369Z"/><path class="cls-12" d="M126.983,107.621a20.645,20.645,0,0,1-10.868-2.9s2.637,5.575,10.758,4.815Z"/><path class="cls-5" d="M122.913,95.144c0.182-.01.184,1.205,1.225,2.068s2.335,0.729,2.344.9a0.978,0.978,0,0,1-.835.251,3.026,3.026,0,0,1-1.957-.682,2.636,2.636,0,0,1-.949-1.734A0.838,0.838,0,0,1,122.913,95.144Z"/><path class="cls-5" d="M122.434,81.675c-0.111.3-1.229,0.16-2.542,0.319-1.317.132-2.377,0.517-2.551,0.243a0.822,0.822,0,0,1,.535-0.712,4.454,4.454,0,0,1,3.88-.428A0.822,0.822,0,0,1,122.434,81.675Z"/><path class="cls-5" d="M132.741,82.614c-0.2.254-.968-0.01-1.9-0.022-0.927-.045-1.713.171-1.894-0.1a0.606,0.606,0,0,1,.388-0.625,2.745,2.745,0,0,1,3.054.094A0.606,0.606,0,0,1,132.741,82.614Z"/><path class="cls-5" d="M134.858,78.812s-4.144,2.17-9.708-.39c-3.651-1.68-7.868-2.424-8.769-1.672s-0.979,4.461-4.5,5.655c0,0,.468,7.058-2.357,6.9s-2.4-14.33-2.4-14.33l7.774-.416L122.37,72.9l7.118,0.775L135.019,75Z"/><path class="cls-5" d="M106.93,72.954a1.819,1.819,0,0,1,2.429.847l0.014,0.03a12.857,12.857,0,0,1-1.181-.552A12.807,12.807,0,0,1,106.93,72.954Z"/><path class="cls-5" d="M109.27,70.567a8.725,8.725,0,0,1,.234,1.8c0.14,0.962.558,1.655,0.458,1.728a2.192,2.192,0,0,1-.877-1.659A2.765,2.765,0,0,1,109.27,70.567Z"/><path class="cls-10" d="M109.684,86.39c-0.116-.056-4.691-1.606-4.74,3.127s4.713,3.806,4.723,3.67S109.684,86.39,109.684,86.39Z"/><path class="cls-12" d="M108.239,91.379a1.42,1.42,0,0,0-.223.119,0.824,0.824,0,0,1-.616.006,2.039,2.039,0,0,1-.925-1.84,2.719,2.719,0,0,1,.243-1.178,0.953,0.953,0,0,1,.627-0.627,0.42,0.42,0,0,1,.484.231,2.286,2.286,0,0,1,.056.235,0.233,0.233,0,0,0,.066-0.274,0.527,0.527,0,0,0-.183-0.3,0.622,0.622,0,0,0-.455-0.125,1.159,1.159,0,0,0-.869.725,2.8,2.8,0,0,0-.3,1.316,2.141,2.141,0,0,0,1.182,2.056,0.883,0.883,0,0,0,.755-0.118A0.285,0.285,0,0,0,108.239,91.379Z"/><path class="cls-6" d="M128.267,117.794c3.476,0.2,9.318.669,20.849,7.409,2.517,1.472,28.388,18.842,28.388,18.842L166.048,158.7l-21.092-11.88,2.844,25.26,3.161,30.031-51.11-.649L98.574,171.3l-0.432-20.514L94.9,178.169l-20.21-1.921,5.574-36.083a24.047,24.047,0,0,1,5.325-12c3.476-4.065,7.916-6.531,12.986-8.365a42.617,42.617,0,0,1,9.526-1.741l-0.166-6.035s9.09,0.85,11.511,6.689c0,0,3.015-6.9,8.854-7.472Z"/><path class="cls-4" d="M114.59,200.145a7.7,7.7,0,0,1-1.4-2.986,27.2,27.2,0,0,1-.862-8.937c0.056-1.889.212-3.946,0.3-6.134a54.916,54.916,0,0,0-.136-6.949,132.889,132.889,0,0,0-2.745-15.8,94.323,94.323,0,0,1-2.359-16.082c-0.126-5.033.3-9.471,0.063-13.172a27.114,27.114,0,0,0-1.679-8.545c-0.76-1.924-1.417-2.892-1.309-2.964a7.516,7.516,0,0,1,1.866,2.718,24.467,24.467,0,0,1,2.225,8.711c0.38,3.794.07,8.3,0.274,13.193a102.343,102.343,0,0,0,2.449,15.818,118.763,118.763,0,0,1,2.651,16.011,52.465,52.465,0,0,1-.006,7.132l-0.5,6.118a30.793,30.793,0,0,0,.347,8.73C114.218,199.028,114.716,200.087,114.59,200.145Z"/><path class="cls-4" d="M135.649,201.6a13.221,13.221,0,0,1-.521-3.23l-0.946-8.832c-0.788-7.455-1.966-17.741-3.639-29.05-0.833-5.657-1.7-11.034-2.543-15.916s-1.642-9.292-2.082-13.039a64.549,64.549,0,0,1-.528-8.917,11.026,11.026,0,0,1,.321-3.265c0.245,0.007.093,4.653,1.3,12.029,0.575,3.69,1.482,8.052,2.4,12.936s1.836,10.27,2.672,15.944c1.678,11.345,2.686,21.685,3.193,29.181,0.259,3.748.4,6.785,0.453,8.886A13.22,13.22,0,0,1,135.649,201.6Z"/><path class="cls-4" d="M134.511,118.715a25.069,25.069,0,0,1,.505,3.232,66.664,66.664,0,0,0,2.185,8.6c0.538,1.807,1.15,3.791,1.657,5.981a50.8,50.8,0,0,1,1.093,7.084c0.45,5.027.386,10.511,0.7,16.235,0.575,11.471,1.7,21.827,2.454,29.331,0.384,3.752.686,6.791,0.858,8.9a13.371,13.371,0,0,1,.113,3.289,13.356,13.356,0,0,1-.716-3.212c-0.358-2.082-.827-5.1-1.352-8.84-1.034-7.477-2.339-17.847-2.918-29.387-0.317-5.772-.212-11.273-0.576-16.195a53.011,53.011,0,0,0-.924-6.925c-0.439-2.145-.985-4.132-1.455-5.96a49.949,49.949,0,0,1-1.725-8.823A9.151,9.151,0,0,1,134.511,118.715Z"/><path class="cls-4" d="M126.45,118.425c-0.448-.073-0.507-1.386-0.881-2.726s-1-2.5-.653-2.79a0.935,0.935,0,0,1,.975.388,4.38,4.38,0,0,1,1.194,4.292A0.935,0.935,0,0,1,126.45,118.425Z"/><path class="cls-4" d="M110.325,118.954a0.991,0.991,0,0,1-.788-0.859,4.521,4.521,0,0,1,1.347-4.856,0.99,0.99,0,0,1,1.118-.33c0.252,0.362-.627,1.422-1.025,2.971C110.52,117.413,110.727,118.774,110.325,118.954Z"/><path class="cls-4" d="M126.3,201.135c-0.138-.026.114-1.169,0-3.225a31.545,31.545,0,0,0-1.983-8.487c-0.6-1.763-1.309-3.7-1.919-5.838s-1.156-4.447-1.622-6.893c-0.937-4.9-1.562-10.313-2.282-15.971-1.418-11.333-2.614-21.6-3.4-29.044-0.394-3.721-.687-6.736-0.854-8.824a13.144,13.144,0,0,1-.1-3.262,13.146,13.146,0,0,1,.7,3.186c0.352,2.064.812,5.058,1.346,8.762,1.069,7.407,2.439,17.655,3.856,28.987,0.721,5.666,1.3,11.068,2.148,15.906,0.421,2.42.9,4.7,1.455,6.808s1.188,4.042,1.722,5.845a27.715,27.715,0,0,1,1.538,8.815A7.075,7.075,0,0,1,126.3,201.135Z"/><path class="cls-4" d="M105.446,200.008c-0.223.014-.6-3.085-1.175-8.091S102.909,180,102.1,172.342s-1.373-14.614-1.608-19.66-0.192-8.175.014-8.186c0.224-.012.567,3.091,1.087,8.1l2.06,19.582c0.8,7.65,1.43,14.6,1.713,19.642S105.654,199.995,105.446,200.008Z"/><path class="cls-4" d="M78.187,176.467c-0.21-.05.375-3.33,1.491-8.591s2.761-12.5,4.673-20.481l2.755-11.233a35.181,35.181,0,0,1,3.127-9.047,12.352,12.352,0,0,1,4.5-4.711,4.035,4.035,0,0,1,2.262-.756c0.043,0.121-.751.4-1.932,1.267a13.153,13.153,0,0,0-3.855,4.722,38.264,38.264,0,0,0-2.7,8.861l-2.638,11.26c-1.912,7.977-3.728,15.179-5.118,20.375S78.4,176.517,78.187,176.467Z"/><path class="cls-4" d="M102.07,125.769c0.085,0.1-.472.608-1.052,1.818a27.115,27.115,0,0,0-1.847,5.386l-0.933,3.874c-0.311,1.384-.571,2.894-0.9,4.5a30.038,30.038,0,0,1-1.418,5,52.424,52.424,0,0,1-2.347,5.011c-0.858,1.662-1.716,3.267-2.389,4.839a23.205,23.205,0,0,0-1.318,4.722A66.739,66.739,0,0,0,89,169.377c-0.208,4.869-.136,7.9-0.37,7.918-0.2.014-.66-3-0.734-7.938a54.289,54.289,0,0,1,.55-8.683,23.283,23.283,0,0,1,1.326-5.074c0.7-1.679,1.556-3.3,2.412-4.963s1.669-3.262,2.312-4.855a30.818,30.818,0,0,0,1.436-4.746c0.362-1.563.673-3.08,1.049-4.5s0.754-2.684,1.13-3.872a20.887,20.887,0,0,1,2.385-5.391A3.158,3.158,0,0,1,102.07,125.769Z"/><path class="cls-4" d="M172.879,149.335c-0.081.188-2.053-.471-4.948-2.1a63.219,63.219,0,0,1-10.57-7.493c-1.925-1.727-3.476-3.521-5.038-4.991a29.035,29.035,0,0,0-4.358-3.569c-2.685-1.749-4.716-2.158-4.649-2.422a2.5,2.5,0,0,1,1.469.076,13.479,13.479,0,0,1,3.74,1.394,24.391,24.391,0,0,1,4.775,3.47c1.66,1.454,3.283,3.255,5.1,4.88a102.824,102.824,0,0,0,10.11,7.72C171.209,148.135,172.973,149.128,172.879,149.335Z"/><path class="cls-4" d="M168.108,156.069c-0.128.181-1.528-.583-3.732-1.885s-5.232-3.122-8.54-5.226a80.321,80.321,0,0,1-8.2-5.84c-1.986-1.66-3.062-2.858-2.928-3.014,0.147-.172,1.464.718,3.589,2.128s5.084,3.313,8.383,5.409,6.254,4.074,8.312,5.623S168.229,155.9,168.108,156.069Z"/><path class="cls-5" d="M97.094,120.988a0.849,0.849,0,0,1,.32.1,6.22,6.22,0,0,1,.86.425,9.36,9.36,0,0,1,2.62,2.359,12.443,12.443,0,0,1,2.2,4.745,17.41,17.41,0,0,1,.15,6.4,35.907,35.907,0,0,1-1.573,6.186c-0.626,1.854-1.245,3.5-1.73,4.889s-0.847,2.525-1.081,3.314a7.41,7.41,0,0,1-.394,1.221,5.463,5.463,0,0,1,.2-1.271c0.176-.809.487-1.968,0.933-3.378,0.845-2.827,2.458-6.616,3.142-11.035a17.544,17.544,0,0,0-.1-6.223,12.553,12.553,0,0,0-2.035-4.634A11.361,11.361,0,0,0,97.094,120.988Z"/><path class="cls-5" d="M145.588,152.433a5.794,5.794,0,0,1-.209-1.216l-0.419-3.327-1.334-10.982-1.335-10.983-0.4-3.328a5.817,5.817,0,0,1-.1-1.229,5.778,5.778,0,0,1,.294,1.2c0.149,0.779.345,1.909,0.562,3.31,0.433,2.8.962,6.679,1.482,10.971s0.934,8.182,1.188,11c0.127,1.411.214,2.555,0.26,3.346A5.805,5.805,0,0,1,145.588,152.433Z"/><path class="cls-5" d="M117.719,116.409a2.41,2.41,0,0,0-1.7.223,2.888,2.888,0,0,0-1.206,1.4,7.2,7.2,0,0,0-.382,1.084l-0.157.6a1.525,1.525,0,0,1-.323.7,0.7,0.7,0,0,1-.449.217,0.95,0.95,0,0,1-.426-0.08c-0.225-.1-0.391-0.186-0.583-0.277l-1.069-.525-1.8-.916a6.913,6.913,0,0,1-1.6-.96,6.919,6.919,0,0,1,1.754.638l1.844,0.819,1.082,0.5,0.557,0.257a0.255,0.255,0,0,0,.325-0.02,4.139,4.139,0,0,0,.369-1.088,6.943,6.943,0,0,1,.438-1.149,3.11,3.11,0,0,1,1.464-1.519,2.088,2.088,0,0,1,1.414-.164A0.678,0.678,0,0,1,117.719,116.409Z"/><path class="cls-5" d="M128.4,117.422a27.824,27.824,0,0,1-3.942,3.274l-0.327.248-0.071-.407-0.09-.515a6.01,6.01,0,0,0-1.479-3.479,5.36,5.36,0,0,0-1.345-.849,1.935,1.935,0,0,1,1.582.583,4.113,4.113,0,0,1,1.121,1.494,8.912,8.912,0,0,1,.617,2.162l0.089,0.521-0.4-.159A27.851,27.851,0,0,1,128.4,117.422Z"/><path class="cls-5" d="M94.057,177.285a14.84,14.84,0,0,1-2.446-.681c-1.494-.459-3.564-1.071-5.874-1.653s-4.425-1.019-5.959-1.321a14.841,14.841,0,0,1-2.477-.556,11.121,11.121,0,0,1,2.536.2,58.829,58.829,0,0,1,11.888,2.987A11.128,11.128,0,0,1,94.057,177.285Z"/><path class="cls-5" d="M78.941,170.982a10.907,10.907,0,0,1,2.417.5c1.473,0.384,3.491.981,5.684,1.749,1.1,0.383,2.133.772,3.069,1.143a15.35,15.35,0,0,1,2.448,1.134,3.018,3.018,0,0,1,1.611,1.875,5.49,5.49,0,0,0-1.791-1.567,18.621,18.621,0,0,0-2.434-1.008l-3.07-1.1c-2.183-.764-4.175-1.412-5.618-1.882A13.283,13.283,0,0,1,78.941,170.982Z"/><path class="cls-5" d="M167.648,154.831a7.892,7.892,0,0,1,.858-1.941,45.084,45.084,0,0,1,5.78-8.424,7.881,7.881,0,0,1,1.5-1.5c0.113,0.1-1.977,2.556-4.216,5.832S167.781,154.9,167.648,154.831Z"/><path class="cls-5" d="M166.138,152.461a5.975,5.975,0,0,1,.887-1.75,21.237,21.237,0,0,1,6.692-6.621,5.973,5.973,0,0,1,1.759-.869,56.713,56.713,0,0,0-5.123,4.162A56.764,56.764,0,0,0,166.138,152.461Z"/><path class="cls-5" d="M130.208,203.822a4.794,4.794,0,0,1-.135-0.8l-0.29-2.312-1-8.511c-0.832-7.187-1.981-17.115-3.345-28.069s-2.7-20.862-3.769-28.016c-0.549-3.574-.981-6.47-1.324-8.463l-0.364-2.3a4.772,4.772,0,0,1-.092-0.809,4.748,4.748,0,0,1,.2.79l0.461,2.285c0.4,1.984.893,4.872,1.489,8.442,1.168,7.144,2.561,17.047,3.922,28.008s2.456,20.894,3.2,28.093l0.831,8.53,0.192,2.323A4.749,4.749,0,0,1,130.208,203.822Z"/><path class="cls-5" d="M123.654,141.4c-0.061.017-.135-0.418,0.351-0.8a1,1,0,0,1,1.04-.092,1.1,1.1,0,0,1,.6,1.15,1.057,1.057,0,0,1-1.008.829,0.87,0.87,0,0,1-.857-0.627,0.815,0.815,0,0,1,.073-0.68c0.093-.137.185-0.166,0.207-0.143a1.336,1.336,0,0,0,.063.689,0.485,0.485,0,0,0,.491.282,0.607,0.607,0,0,0,.52-0.445,0.655,0.655,0,0,0-.316-0.632,0.641,0.641,0,0,0-.621-0.016A2.824,2.824,0,0,0,123.654,141.4Z"/><path class="cls-5" d="M126.675,158.823c-0.061.017-.135-0.418,0.351-0.8a1,1,0,0,1,1.04-.092,1.1,1.1,0,0,1,.6,1.15,1.057,1.057,0,0,1-1.008.829,0.87,0.87,0,0,1-.858-0.627,0.814,0.814,0,0,1,.073-0.679c0.093-.137.185-0.166,0.207-0.143a1.336,1.336,0,0,0,.063.689,0.485,0.485,0,0,0,.491.282,0.607,0.607,0,0,0,.52-0.445,0.655,0.655,0,0,0-.316-0.632,0.641,0.641,0,0,0-.621-0.016A2.82,2.82,0,0,0,126.675,158.823Z"/><path class="cls-6" d="M119.025,369.75l-0.2-8.908-16.688.273L102.3,374.15l1.036,0.05c4.609,0.18,23.448.592,26.511-.391C133.256,372.711,119.025,369.75,119.025,369.75Z"/><g class="cls-14"><path class="cls-9" d="M125.983,371.444s4.993,1.352,4.386,2.181-19.66,1.129-28.076.526l0.021-.373,22.227-.161S125.012,371.5,125.983,371.444Z"/></g><path class="cls-5" d="M102.052,373.771a1.515,1.515,0,0,0,.287.027l0.825,0.037,3.035,0.083c2.563,0.052,6.105.076,10.017,0.018s7.453-.19,10.014-0.319l3.031-.174,0.823-.062a0.145,0.145,0,1,0,0-.041l-0.825.024-3.033.109c-2.561.092-6.1,0.2-10.011,0.259s-7.449.056-10.012,0.041l-3.035-.019H102.34A1.571,1.571,0,0,0,102.052,373.771Z"/><path class="cls-5" d="M124.541,373.875a4.41,4.41,0,0,1,1.559-2.634A2.7,2.7,0,0,0,124.541,373.875Z"/><ellipse class="cls-5" cx="120.009" cy="370.754" rx="0.823" ry="0.101" transform="translate(-258.812 279.346) rotate(-58.498)"/><ellipse class="cls-5" cx="118.73" cy="370.284" rx="0.7" ry="0.101" transform="translate(-220.109 179.508) rotate(-42.841)"/><ellipse class="cls-5" cx="118.209" cy="369.196" rx="0.872" ry="0.101" transform="translate(-1.693 0.546) rotate(-0.263)"/><path class="cls-5" d="M117.026,368.094a2.452,2.452,0,0,0,1.977.118,5.4,5.4,0,0,0-.989-0.052A5.341,5.341,0,0,0,117.026,368.094Z"/><path class="cls-5" d="M120.121,369.99a3.092,3.092,0,0,0,1.072-.024,6.272,6.272,0,0,0,1.138-.27,3.134,3.134,0,0,0,.649-0.279,0.58,0.58,0,0,0,.26-0.337,0.422,0.422,0,0,0-.169-0.426,1.967,1.967,0,0,0-2.423.613,1.921,1.921,0,0,0-.339.721,0.593,0.593,0,0,0-.023.29,3.035,3.035,0,0,1,.474-0.922,1.936,1.936,0,0,1,.907-0.61,1.663,1.663,0,0,1,1.279.067c0.172,0.124.109,0.325-.078,0.441a3.209,3.209,0,0,1-.6.267,7.408,7.408,0,0,1-1.1.3C120.529,369.95,120.12,369.957,120.121,369.99Z"/><path class="cls-5" d="M120.4,370.039a1.056,1.056,0,0,0,.112-0.746,1.759,1.759,0,0,0-.305-0.779,1.076,1.076,0,0,0-.9-0.533,0.427,0.427,0,0,0-.323.5,1.176,1.176,0,0,0,.19.476,3.248,3.248,0,0,0,.517.641,1.548,1.548,0,0,0,.621.424c0.018-.026-0.217-0.189-0.518-0.524a3.738,3.738,0,0,1-.459-0.636c-0.151-.224-0.258-0.63.01-0.683a0.959,0.959,0,0,1,.714.444,1.763,1.763,0,0,1,.314.692A3.907,3.907,0,0,1,120.4,370.039Z"/><path class="cls-5" d="M102.321,369.2c0,0.038.477-.053,1.233,0.024a5.229,5.229,0,0,1,4.426,3.415c0.266,0.711.3,1.192,0.336,1.186a0.965,0.965,0,0,0,0-.337,4.4,4.4,0,0,0-.2-0.9,5.072,5.072,0,0,0-4.549-3.51,4.394,4.394,0,0,0-.917.038A0.966,0.966,0,0,0,102.321,369.2Z"/><ellipse class="cls-5" cx="103.95" cy="365.659" rx="0.101" ry="3.43" transform="translate(-1.123 0.321) rotate(-0.176)"/><path class="cls-5" d="M110.416,372.26a13.7,13.7,0,0,0,4.877-.031c-0.006-.059-1.1.025-2.439,0.032S110.422,372.2,110.416,372.26Z"/><path class="cls-5" d="M107.146,372.307a8.435,8.435,0,0,0,.445.942A0.822,0.822,0,0,0,107.146,372.307Z"/><ellipse class="cls-5" cx="106.207" cy="371.102" rx="0.101" ry="0.445" transform="translate(-232.955 186.804) rotate(-45.51)"/><path class="cls-5" d="M104.114,370.119a6.227,6.227,0,0,1,.949.3A0.67,0.67,0,0,0,104.114,370.119Z"/><ellipse class="cls-5" cx="103.105" cy="369.902" rx="0.101" ry="0.269" transform="translate(-279.605 338.418) rotate(-69.722)"/><g class="cls-7"><polygon points="102.336 368.752 119.003 368.212 118.945 366.203 102.187 367.697 102.336 368.752"/></g><path class="cls-6" d="M157.716,369.923l-0.249-8.906-16.686.359,0.226,13.034,1.036,0.044c4.61,0.156,23.451.471,26.508-.529C171.962,372.81,157.716,369.923,157.716,369.923Z"/><g class="cls-14"><path class="cls-9" d="M164.682,371.58s5,1.326,4.4,2.158-19.654,1.23-28.073.671l0.019-.373,22.226-.276S163.712,371.642,164.682,371.58Z"/></g><path class="cls-5" d="M140.764,374.031a1.516,1.516,0,0,0,.287.025l0.825,0.032,3.036,0.067c2.563,0.038,6.106.045,10.017-.034s7.452-.229,10.012-0.37l3.03-.19,0.823-.066a1.553,1.553,0,0,0,.286-0.036,1.529,1.529,0,0,0-.288,0l-0.825.028-3.032.125c-2.561.105-6.1,0.232-10.009,0.311s-7.449.1-10.012,0.093h-3.035l-0.826.006A1.566,1.566,0,0,0,140.764,374.031Z"/><path class="cls-5" d="M163.253,374.02a4.408,4.408,0,0,1,1.546-2.642A2.7,2.7,0,0,0,163.253,374.02Z"/><ellipse class="cls-5" cx="158.704" cy="370.919" rx="0.823" ry="0.101" transform="translate(-240.78 314.522) rotate(-58.8)"/><ellipse class="cls-5" cx="157.423" cy="370.459" rx="0.7" ry="0.101" transform="translate(-210.757 207.777) rotate(-43.139)"/><ellipse class="cls-5" cx="156.894" cy="369.374" rx="0.872" ry="0.101" transform="translate(-3.571 1.537) rotate(-0.555)"/><path class="cls-5" d="M155.708,368.277a2.452,2.452,0,0,0,1.978.108Q156.7,368.344,155.708,368.277Z"/><path class="cls-5" d="M158.813,370.157a3.091,3.091,0,0,0,1.072-.029,6.282,6.282,0,0,0,1.136-.276,3.13,3.13,0,0,0,.648-0.283,0.579,0.579,0,0,0,.258-0.339,0.422,0.422,0,0,0-.171-0.425,1.967,1.967,0,0,0-2.42.626,1.92,1.92,0,0,0-.335.723,0.592,0.592,0,0,0-.022.29,3.028,3.028,0,0,1,.469-0.925,1.934,1.934,0,0,1,.9-0.614,1.663,1.663,0,0,1,1.28.06c0.173,0.123.111,0.324-.076,0.441a3.2,3.2,0,0,1-.6.27,7.4,7.4,0,0,1-1.1.31C159.221,370.115,158.812,370.124,158.813,370.157Z"/><path class="cls-5" d="M159.092,370.2a1.058,1.058,0,0,0,.108-0.747,1.76,1.76,0,0,0-.309-0.777,1.077,1.077,0,0,0-.9-0.528,0.427,0.427,0,0,0-.32.5,1.175,1.175,0,0,0,.192.475,3.246,3.246,0,0,0,.52.638,1.547,1.547,0,0,0,.623.421c0.018-.026-0.218-0.188-0.52-0.521a3.738,3.738,0,0,1-.462-0.634c-0.152-.224-0.261-0.628.007-0.683a0.959,0.959,0,0,1,.716.44,1.764,1.764,0,0,1,.318.691A3.921,3.921,0,0,1,159.092,370.2Z"/><path class="cls-5" d="M141.009,369.459c0,0.038.477-.056,1.233,0.018a5.228,5.228,0,0,1,4.443,3.392c0.27,0.71.3,1.19,0.342,1.185a0.967,0.967,0,0,0-.007-0.337,4.388,4.388,0,0,0-.2-0.9,5.073,5.073,0,0,0-4.567-3.487,4.4,4.4,0,0,0-.917.043A0.967,0.967,0,0,0,141.009,369.459Z"/><ellipse class="cls-5" cx="142.621" cy="365.908" rx="0.101" ry="3.43" transform="translate(-3.009 1.187) rotate(-0.472)"/><path class="cls-5" d="M149.12,372.477a13.7,13.7,0,0,0,4.877-.056c-0.007-.059-1.1.031-2.438,0.044S149.126,372.419,149.12,372.477Z"/><path class="cls-5" d="M145.85,372.541a8.46,8.46,0,0,0,.45.94A0.821,0.821,0,0,0,145.85,372.541Z"/><ellipse class="cls-5" cx="144.904" cy="371.343" rx="0.101" ry="0.445" transform="translate(-222.365 216.403) rotate(-45.81)"/><path class="cls-5" d="M142.807,370.369a6.25,6.25,0,0,1,.951.3A0.67,0.67,0,0,0,142.807,370.369Z"/><ellipse class="cls-5" cx="141.797" cy="370.155" rx="0.101" ry="0.269" transform="translate(-254.531 376.863) rotate(-70.009)"/><g class="cls-7"><polygon points="141.022 369.011 157.686 368.385 157.617 366.376 140.867 367.957 141.022 369.011"/></g><polygon class="cls-5" points="99.062 198.742 99.062 367.477 125.365 367.477 127.693 221.128 136.918 367.477 163.22 367.477 151.455 201.593 99.062 198.742"/><path class="cls-8" d="M129.93,200.007a14.587,14.587,0,0,1,.221,2.714c0.072,1.678.136,4,.176,6.557,0.012,1.273.024,2.487,0.035,3.613a6.473,6.473,0,0,1-.546,2.96,3.458,3.458,0,0,1-1.5,1.528,1.478,1.478,0,0,1-.795.219c-0.013-.037.274-0.1,0.69-0.367a3.465,3.465,0,0,0,1.273-1.506,6.567,6.567,0,0,0,.409-2.832c-0.023-1.125-.048-2.337-0.074-3.609-0.04-2.561-.048-4.88-0.029-6.559A14.567,14.567,0,0,1,129.93,200.007Z"/><path class="cls-8" d="M125.211,201.919a1.529,1.529,0,0,0-.363.81,0.853,0.853,0,0,0,.376.754,1.014,1.014,0,0,0,1.055-.068,0.685,0.685,0,0,0,.058-1.19,1.189,1.189,0,0,0-1.061-.227l-0.014-.178a0.552,0.552,0,0,1,.313.2A0.619,0.619,0,0,1,125.19,202l-0.211-.039,0.2-.139a1.368,1.368,0,0,1,1.429.1,1.147,1.147,0,0,1,.537.856,1.12,1.12,0,0,1-.567.995,1.492,1.492,0,0,1-1.63.035,1.114,1.114,0,0,1-.451-1.117,1.05,1.05,0,0,1,.417-0.684A0.355,0.355,0,0,1,125.211,201.919Z"/><path class="cls-10" d="M143.861,169.019c-0.692-.9-9,0.53-9,0.53l3.031-2.3c-1.543-2.74-6.882.575-8.58,2.179a3.123,3.123,0,0,0-.841,1.651L94.953,178.15l-18.71-1.906s-0.374,3.228-1.314,9.317c-0.888,5.754,8.579,11.4,14.443,10.573,5.362-.754,38.122-10.069,43.7-11.66h0l0.811-.232-0.014-.038c1.808-.62,6.126-2.168,6.577-2.949,0.572-.99.417-8.751,0.417-8.751l3.077-1.357A2.2,2.2,0,0,0,143.861,169.019Z"/></svg>